<svg width="200" height="200" viewBox="0 0 200 200" fill="none" xmlns="http://www.w3.org/2000/svg">
<g clip-path="url(#clip0_110_98)">
<path d="M112.792 128.297C113.341 128.297 113.773 128.429 114.089 128.694C114.405 128.958 114.561 129.326 114.561 129.788C114.561 130.255 114.405 130.619 114.089 130.887C113.773 131.151 113.341 131.283 112.792 131.283H111.746V132.584H111.14V128.297H112.792ZM112.774 130.755C113.159 130.755 113.45 130.67 113.653 130.505C113.857 130.339 113.955 130.101 113.955 129.792C113.955 129.483 113.853 129.245 113.653 129.079C113.45 128.914 113.159 128.83 112.774 128.83H111.743V130.755H112.774ZM120.78 132.588L119.864 131.269C119.752 131.276 119.661 131.28 119.599 131.28H118.553V132.584H117.946V128.297H119.599C120.147 128.297 120.58 128.429 120.896 128.694C121.212 128.958 121.368 129.326 121.368 129.788C121.368 130.119 121.288 130.402 121.125 130.633C120.965 130.865 120.732 131.034 120.434 131.14L121.441 132.58H120.78V132.588ZM119.581 130.762C119.966 130.762 120.256 130.677 120.46 130.512C120.663 130.343 120.761 130.104 120.761 129.796C120.761 129.487 120.66 129.248 120.46 129.083C120.256 128.918 119.966 128.833 119.581 128.833H118.549V130.762H119.581ZM124.844 128.301H125.451V132.588H124.844V128.301ZM132.856 128.301L130.997 132.588H130.398L128.531 128.301H129.184L130.709 131.823L132.25 128.301H132.856ZM138.457 131.519H136.205L135.741 132.591H135.116L137.037 128.304H137.636L139.561 132.591H138.926L138.461 131.519H138.457ZM138.247 131.03L137.331 128.929L136.416 131.03H138.247ZM143.313 128.837H141.861V128.304H145.369V128.837H143.917V132.591H143.317V128.837H143.313ZM151.599 132.059V132.591H148.522V128.304H151.516V128.837H149.128V130.156H151.254V130.677H149.128V132.062H151.599V132.059ZM160.011 128.304H160.617V132.059H162.913V132.591H160.011V128.304ZM166.102 128.304H166.708V132.591H166.102V128.304ZM174.405 132.591L174.398 129.465L172.865 132.07H172.585L171.052 129.483V132.591H170.471V128.304H170.969L172.738 131.32L174.481 128.304H174.979L174.986 132.591H174.405ZM178.752 128.304H179.36V132.591H178.752V128.304ZM183.965 128.837H182.512V128.304H186.021V128.837H184.567V132.591H183.969V128.837H183.965ZM192.25 132.059V132.591H189.174V128.304H192.166V128.837H189.78V130.156H191.905V130.677H189.78V132.062H192.25V132.059ZM195.726 128.304H197.513C197.96 128.304 198.359 128.392 198.704 128.572C199.054 128.752 199.322 129.006 199.514 129.329C199.707 129.652 199.802 130.027 199.802 130.446C199.802 130.868 199.707 131.239 199.514 131.563C199.322 131.886 199.054 132.139 198.704 132.319C198.356 132.499 197.96 132.588 197.513 132.588H195.726V128.301V128.304ZM197.476 132.059C197.822 132.059 198.123 131.993 198.381 131.857C198.642 131.721 198.842 131.533 198.984 131.291C199.126 131.048 199.194 130.765 199.194 130.45C199.194 130.13 199.126 129.851 198.984 129.608C198.842 129.366 198.642 129.175 198.381 129.043C198.119 128.907 197.818 128.841 197.476 128.841H196.332V132.062H197.476V132.059Z" fill="white"/>
<path d="M61.1166 121.751L59.9288 120.704C59.5583 121.116 59.0172 121.413 58.3053 121.589C57.5934 121.769 56.8269 121.858 56.0061 121.858C55.2942 121.858 54.6404 121.795 54.0447 121.67C53.449 121.545 52.9296 121.336 52.4792 121.038C52.0288 120.745 51.6801 120.352 51.4295 119.87C51.1788 119.385 51.0518 118.794 51.0518 118.096V103.049C51.0518 101.815 51.4876 100.874 52.3593 100.228C53.2311 99.5813 54.5387 99.2617 56.2821 99.2617C58.051 99.2617 59.3331 99.585 60.1249 100.228C60.9168 100.871 61.3126 101.815 61.3126 103.049V106.947H58.0256V103.023C58.0256 102.182 57.4444 101.76 56.2821 101.76C55.2252 101.76 54.6985 102.182 54.6985 103.023V118.096C54.6985 118.544 54.8438 118.871 55.1344 119.077C55.4249 119.282 55.7954 119.385 56.2421 119.385C57.35 119.385 57.9457 119.011 58.0256 118.258V113.5H56.0859V111.135H61.5524V121.747H61.1166V121.751ZM65.112 121.615V99.5005H74.1052V101.999H68.7587V109.199H72.2456V111.697H68.7587V121.612H65.112V121.615ZM83.4872 99.5005H87.1302V118.096C87.1302 120.605 85.4012 121.858 81.9399 121.858C78.482 121.858 76.7495 120.605 76.7495 118.096V99.5005H80.3925V118.096C80.3925 118.956 80.9083 119.385 81.9362 119.385C82.9677 119.385 83.4799 118.956 83.4799 118.096V99.5005H83.4872ZM92.7129 121.615V102.002H89.3059V99.5042H99.7666V102.002H96.3596V121.615H92.7166H92.7129ZM109.188 99.5005H112.831V118.096C112.831 120.605 111.103 121.858 107.641 121.858C104.183 121.858 102.451 120.605 102.451 118.096V99.5005H106.094V118.096C106.094 118.956 106.61 119.385 107.637 119.385C108.669 119.385 109.181 118.956 109.181 118.096V99.5005H109.188ZM123.601 103.99C123.601 103.31 123.481 102.807 123.245 102.483C123.009 102.16 122.453 101.999 121.581 101.999H120.194V109.415H121.621C122.944 109.415 123.601 108.942 123.601 107.99V103.986V103.99ZM123.601 121.615C123.31 119.933 123.02 118.276 122.729 116.645C122.439 115.014 122.097 113.357 121.698 111.675H120.194V121.615H116.511V99.5005H121.581C123.481 99.5005 124.916 99.8017 125.878 100.401C126.841 100.999 127.323 102.024 127.323 103.479V107.968C127.323 108.828 127.154 109.504 126.808 109.996C126.463 110.488 125.922 110.877 125.185 111.164C125.66 112.957 126.089 114.709 126.47 116.432C126.855 118.151 127.23 119.881 127.599 121.619H123.597L123.601 121.615ZM130.727 121.615V99.5005H139.521V101.999H134.37V109.092H137.817V111.59H134.37V119.139H139.717V121.612H130.723L130.727 121.615Z" fill="white"/>
<path d="M154.105 121.619V102.006H150.697V99.5079H161.158V102.006H157.75V121.619H154.107H154.105ZM163.962 121.619V99.5042H172.755V102.002H167.605V109.096H171.052V111.594H167.605V119.143H172.952V121.615H163.958L163.962 121.619ZM182.653 113.504H185.981V118.074C185.981 119.363 185.595 120.318 184.833 120.936C184.066 121.553 182.839 121.861 181.149 121.861C177.638 121.861 175.88 120.616 175.88 118.125V103.079C175.88 100.536 177.638 99.2617 181.149 99.2617C184.371 99.2617 185.983 100.514 185.983 103.023V106.947H182.657V103.023C182.657 102.594 182.544 102.274 182.319 102.068C182.093 101.863 181.705 101.76 181.149 101.76C180.118 101.76 179.606 102.182 179.606 103.023V118.096C179.606 118.956 180.121 119.385 181.149 119.385C182.152 119.385 182.653 118.956 182.653 118.096V113.5V113.504ZM196.158 121.619V111.597H193.067V121.619H189.42V99.5042H193.067V109.125H196.158V99.5042H199.801V121.619H196.158Z" fill="url(#paint0_linear_110_98)"/>
<path d="M68.6247 60.238L68.6283 60.2416L68.6428 60.249L68.6464 60.2527L68.6501 60.2563L68.6536 60.26L68.6573 60.2637L68.661 60.2674H68.6645H68.6682L68.6719 60.271L68.6756 60.2747L68.6791 60.2784L68.6828 60.2821L68.6864 60.2857L68.69 60.2894L68.6936 60.2931L68.6973 60.2967L68.7009 60.3004L68.7045 60.3041L68.7082 60.3078L68.7118 60.3114L68.7154 60.3151L68.7191 60.3188L68.7228 60.3225L68.7263 60.3261H68.73H68.7337L68.7372 60.3298L68.7409 60.3335L68.7445 60.3371H68.7481H68.7518L68.7554 60.3408L68.7591 60.3445L68.7626 60.3482L68.7663 60.3518L68.77 60.3555L68.7735 60.3592L68.7772 60.3629L68.7809 60.3665L68.7844 60.3702L68.7881 60.3739L68.7918 60.3776L68.7953 60.3812L68.799 60.3849L68.8026 60.3886L68.8063 60.3923L68.8172 60.3996L68.8207 60.4033L68.839 60.4143L68.8425 60.418C69.1549 60.62 69.4637 60.8294 69.7652 61.0388C69.7833 61.0498 69.805 61.0645 69.8196 61.0755C69.8196 61.0755 69.5072 60.8367 68.5592 60.238L68.5266 60.2196L68.7118 60.3335C69.1404 60.5943 69.5509 60.8808 69.983 61.1343C69.9795 61.1306 69.5726 60.8478 68.5193 60.2159L68.512 60.2123L68.5085 60.2086H68.5048L68.5085 60.2123L68.5774 60.2563L68.6247 60.238ZM31.7653 142.709C32.5716 142.97 33.1963 143.142 33.8938 143.308L33.861 143.3L33.8973 143.308C34.3623 143.421 34.8309 143.528 35.2994 143.624C35.3102 143.624 35.3248 143.624 35.3321 143.624C35.3248 143.612 35.3176 143.601 35.3139 143.59C34.3623 143.227 33.3525 143.087 32.3754 142.823C31.7943 142.665 31.224 142.474 30.6429 142.319C30.7047 142.349 30.7047 142.349 30.919 142.426C31.1877 142.518 31.4566 142.609 31.7253 142.694L31.729 142.698L31.7616 142.709H31.7653ZM33.2872 143.234L33.2435 143.219C34.0535 143.447 35.1323 143.748 35.9496 143.95C36.0839 143.983 36.222 144.016 36.36 144.042C36.3563 144.042 36.3528 144.039 36.3491 144.039C35.3285 143.774 34.3005 143.535 33.2907 143.234H33.2872ZM38.158 144.145C36.36 143.928 36.36 143.928 36.3237 143.928C36.5743 144.138 40.6931 144.784 41.3869 144.63C41.3905 144.623 41.3942 144.612 41.3978 144.604C41.3869 144.601 41.3724 144.593 41.3615 144.586C41.0928 144.501 41.0928 144.501 38.158 144.145ZM39.698 144.663H39.6943L42.4294 144.975C41.4923 144.894 40.6242 144.795 39.698 144.663ZM43.0614 144.307C43.5263 144.31 43.8932 144.296 44.2854 144.259C44.9101 144.222 45.5312 144.174 46.1559 144.105C46.2323 144.028 46.1959 143.991 46.0797 143.928C45.2952 143.645 43.1413 143.803 42.7163 143.836C42.1933 143.877 41.0019 143.994 41.2271 144.16C41.3288 144.237 41.6883 144.292 41.8228 144.31C42.2333 144.314 42.6473 144.314 43.0577 144.303L43.0614 144.307ZM44.9029 144.872C43.0287 144.898 43.0287 144.898 42.9269 144.92C43.41 145.133 47.8232 145.133 48.23 144.92C48.2226 144.913 48.2118 144.902 48.2045 144.894C47.9067 144.836 47.2094 144.843 44.9029 144.872ZM49.2034 143.826C48.8947 143.888 47.3728 144.2 47.6197 144.391C48.1645 144.817 52.6794 144.182 52.7592 143.667C52.7666 143.616 52.7085 143.587 52.6612 143.561C51.8295 143.311 49.3124 143.803 49.2034 143.826ZM51.7459 144.689C51.0449 144.788 50.3402 144.858 49.6392 144.972C49.6756 144.979 49.6792 144.979 49.9262 144.957L50.1042 144.942C51.3935 144.777 53.1116 144.575 54.3901 144.347C54.8078 144.266 54.8842 144.244 54.9386 144.23C54.9386 144.226 54.9423 144.222 54.9423 144.219C53.8599 144.274 52.8101 144.538 51.7423 144.689H51.7459ZM56.3478 143.083C55.7268 143.282 54.6734 143.642 54.6081 143.833C54.8115 144.197 59.5261 142.937 59.7548 142.455C59.7802 142.404 59.7367 142.385 59.7004 142.367C59.141 142.264 57.2631 142.79 56.3478 143.083ZM59.8239 140.196C58.8723 140.707 58.1676 141.331 58.658 141.53C59.7258 141.963 63.7067 140.236 63.4961 139.432C63.4742 139.347 63.3906 139.303 63.3253 139.267C62.4899 139.024 60.7356 139.707 59.8239 140.196ZM63.249 141.386C62.1376 141.89 61.5092 142.205 61.3821 142.319C61.3857 142.327 61.393 142.338 61.3966 142.341C62.0395 142.29 65.9659 140.574 66.3363 140.181C66.3291 140.174 66.3219 140.163 66.3182 140.156C65.8968 140.192 63.6885 141.188 63.249 141.386ZM67.0556 138.102C66.1111 138.741 65.352 139.45 65.7262 139.568C66.558 139.836 70.6224 137.36 70.3535 136.75C70.339 136.717 70.2918 136.691 70.2591 136.677C69.6162 136.57 67.9526 137.492 67.0556 138.098V138.102ZM69.4056 138.572C68.7082 138.998 68.2868 139.237 68.1271 139.329L69.7615 138.363L71.5195 137.213C70.942 137.61 70.172 138.106 69.4056 138.576V138.572ZM69.54 133.54C68.4358 134.612 68.2106 135.545 69.0459 135.582C70.6333 135.648 73.7315 132.933 73.0414 132.081C73.0014 132.03 72.9215 131.989 72.8671 131.956C71.9626 131.703 70.3753 132.728 69.54 133.54ZM73.579 134.958C73.3175 135.182 72.0171 136.309 72.0716 136.522C72.5002 136.691 76.4666 133.444 76.3576 133.014C76.3467 133.011 76.3358 133.007 76.3285 133.003C75.9253 133.055 74.4288 134.23 73.579 134.958ZM76.2523 130.079C75.2171 131.317 74.9047 132.28 75.5694 132.18C76.8297 131.993 79.8263 128.54 79.1688 128.029C79.1507 128.015 79.118 128.004 79.0999 127.993C78.4243 127.886 77.0295 129.15 76.2523 130.079ZM78.98 130.671C78.2644 131.46 77.6252 132.147 77.4291 132.346C78.3516 131.369 79.6011 130.079 80.4728 129.058L81.1666 128.209C80.9014 128.529 79.899 129.657 78.98 130.671ZM86.1063 89.8246C86.6585 90.9156 87.0871 90.8164 87.2505 90.2617C87.6173 89.0127 86.7311 85.8939 85.8739 85.4273C85.7177 85.387 85.5833 85.3833 85.4599 85.758C85.7323 87.0952 85.9501 88.4544 86.1063 89.8246ZM88.914 89.1487C89.299 90.8202 89.7095 91.8707 89.8657 91.5916C90.1381 91.1066 89.1973 86.6066 88.5835 86.3127C88.2857 86.3935 88.9104 89.1193 88.9176 89.1487H88.914ZM89.9455 88.9981C89.9928 89.2001 90.0872 89.6041 90.1853 90.0707L89.5968 87.6205L89.3607 86.7756C89.6114 87.6462 89.8148 88.4653 89.9419 88.9981H89.9455ZM85.9211 82.8118C86.5059 84.509 87.1669 85.6331 87.3667 85.2694C87.7118 84.6265 86.2153 80.6518 85.4816 80.266C85.0276 80.2182 85.9138 82.7898 85.9211 82.8155V82.8118ZM87.8969 83.3224C88.5544 85.038 88.7542 85.4714 88.8523 85.5927C88.8595 85.589 88.8704 85.5817 88.8777 85.5779C88.8414 84.7588 87.1269 80.582 86.8945 80.4975C86.8945 80.6077 86.8945 80.7105 87.9006 83.3261L87.8969 83.3224ZM83.4004 78.6938C83.9197 79.3403 84.0142 79.0758 84.0287 78.9325C84.1304 78.0583 82.4596 74.8549 81.6787 74.4178C81.588 74.3958 81.548 74.4104 81.5406 74.5537C81.7368 74.9321 81.9257 75.3178 82.1109 75.7036C82.2235 75.9754 82.3471 76.2509 82.4742 76.5227C82.525 76.6329 82.5976 76.7798 82.6521 76.8901C82.9137 77.4852 83.1606 78.084 83.3931 78.6938H83.4004ZM84.7369 77.6028C85.5506 79.1456 86.0264 79.9024 86.1499 79.8583C86.2916 79.4065 84.0868 75.3141 83.5529 75.0496C83.5275 75.0974 83.4693 75.204 84.7334 77.6028H84.7369ZM85.5288 77.533C85.9973 78.3779 86.2806 78.9325 86.6113 79.5754V79.5717C85.8775 78.1868 84.8932 76.3464 84.0832 75.0093C84.0396 74.9395 83.9961 74.8696 83.9488 74.8035C84.4573 75.7256 85.0239 76.611 85.5288 77.5293V77.533ZM80.7525 72.0925C82.0492 74.01 82.3434 74.2377 82.4524 74.2452C82.7285 73.8924 79.9934 70.1822 79.3905 69.8553C79.3831 69.8553 79.3759 69.8553 79.3686 69.8553C79.3577 69.8994 79.3323 69.9985 80.7488 72.0925H80.7525ZM82.0164 72.4267C83.4149 74.3333 83.4149 74.3333 83.5166 74.4288C83.5383 73.9733 80.491 70.1198 80.2221 69.9985C80.2585 70.0793 80.2658 70.0941 80.7997 70.7993C81.0176 71.0896 81.4716 71.692 82.0129 72.4267H82.0164ZM77.9085 68.8009C78.0901 68.9699 78.1445 69.0031 78.1991 69.014C78.3116 68.5879 75.3696 65.5021 74.8211 65.1862C74.8248 65.2156 74.8393 65.2523 74.8538 65.2744C75.05 65.4728 75.2425 65.6748 75.4349 65.8768C75.7438 66.2222 76.0488 66.5711 76.3539 66.9201C76.5645 67.1589 76.7753 67.3977 76.9859 67.6364C77.3019 68.0185 77.6106 68.4042 77.9085 68.8009ZM77.6652 67.574C79.3977 69.4108 79.3977 69.4108 79.4849 69.4549C79.4558 69.0618 76.1542 65.7409 75.642 65.4654C75.6711 65.5168 75.6747 65.5242 76.1505 66.0017C76.5573 66.4132 77.0114 66.8761 77.6687 67.574H77.6652ZM78.0829 67.5447C78.6531 68.1214 79.1725 68.7458 79.7645 69.2932C79.1834 68.4594 76.0996 65.4838 75.8163 65.3662C76.5464 66.1193 77.3419 66.7988 78.0792 67.5447H78.0829ZM75.3914 64.9217C75.6166 65.1127 76.2231 65.6417 77.004 66.3875C76.521 65.9466 75.8781 65.3552 75.3914 64.9254V64.9217ZM72.8125 63.2539C73.2485 63.6139 73.6843 63.9886 73.9204 64.187C74.4797 64.6646 74.6795 64.8336 74.7702 64.885C74.6832 64.5911 71.385 61.9866 70.5388 61.487C71.2834 62.0894 72.0716 62.6405 72.809 63.2539H72.8125ZM73.2302 63.3678C73.9058 63.8931 74.5378 64.4699 75.2316 64.9695C75.0137 64.6205 71.6176 62.038 70.6877 61.5127C73.0414 63.2209 73.0414 63.2209 73.2302 63.3641V63.3678ZM73.2448 63.2466C73.8877 63.7278 74.5052 64.2458 75.1444 64.7344C74.0766 63.7388 71.2943 61.7772 70.655 61.4392C72.5401 62.7213 72.5401 62.7213 73.2448 63.2466ZM72.878 62.9123C73.2302 63.1694 73.6153 63.4633 73.9349 63.7205C73.7278 63.5588 73.4518 63.3421 73.2411 63.1841C72.8125 62.8572 72.4167 62.5707 72.068 62.3245L72.0643 62.3209C71.5123 61.9204 71.4868 61.9057 70.1066 61.0241C70.1102 61.0278 70.6151 61.307 71.3052 61.7919C71.4905 61.9204 71.7266 62.0821 71.9335 62.229C71.0364 61.6082 70.4697 61.2812 70.4662 61.2776C72.5329 62.6588 72.5329 62.6588 72.8852 62.916L72.878 62.9123ZM70.092 60.9874L69.8668 60.8441C69.6634 60.7192 69.5944 60.6861 69.5944 60.6861C69.5944 60.6861 69.5981 60.6898 69.6018 60.6898C69.8233 60.8257 70.0448 60.9543 70.2628 61.0939L70.092 60.9837V60.9874ZM69.104 60.3776L69.0169 60.3261C69.0096 60.3225 69.0024 60.3114 68.9915 60.3151C68.9987 60.3225 69.0024 60.3261 69.0096 60.3298C69.0896 60.3739 69.1695 60.418 69.2458 60.4657L69.104 60.3812V60.3776ZM68.2469 59.8743L68.2361 59.8669C68.2905 59.8963 68.3414 59.9331 68.3958 59.9661C68.414 59.9772 68.4321 59.9808 68.4502 59.9918L68.2469 59.8743ZM67.368 59.3857C67.5131 59.4665 67.6548 59.551 67.7966 59.6318C67.8001 59.6318 67.8038 59.6355 67.8038 59.6355C67.7674 59.6061 67.6476 59.54 67.6439 59.54C67.5604 59.4922 67.4478 59.4335 67.3643 59.3857H67.368ZM66.1874 58.7685C66.5471 58.9522 66.8994 59.1506 67.2553 59.3416C67.2372 59.3269 67.012 59.1947 66.6778 59.0184C66.5325 58.9412 66.3363 58.842 66.1874 58.7685ZM65.0361 58.2102C64.7491 58.0779 64.364 57.9016 64.0772 57.773C64.7818 58.0853 64.7818 58.0853 66.8012 59.1212C66.7977 59.1175 66.231 58.7759 65.1777 58.2763L65.0397 58.2102H65.0361ZM68.5774 60.1939L68.5701 60.1902L68.5738 60.1939H68.5774ZM68.592 60.2049L68.6101 60.2159L68.552 60.1792L68.4648 60.1314L68.5448 60.1755C68.1961 59.9588 67.8328 59.7641 67.4878 59.5327C67.4914 59.5327 67.8582 59.7384 68.4721 60.1278L68.5483 60.1755C68.1961 59.9404 67.8292 59.7273 67.4768 59.4922C67.5314 59.5216 67.92 59.7494 68.414 60.0837L68.552 60.1755L68.4648 60.1278L68.6283 60.2233L68.5883 60.1976L68.592 60.2049ZM68.5557 60.1792L68.552 60.1755L68.4648 60.1094C68.1053 59.8339 67.8364 59.6759 67.8328 59.6722C67.8547 59.6906 67.8764 59.7053 67.8982 59.72C68.1888 59.9147 68.3305 60.0139 68.5483 60.1755C68.4648 60.0984 68.3777 60.0212 68.2905 59.9478C68.2687 59.9294 68.2469 59.9147 68.2287 59.8927C68.2433 59.9 68.3886 59.9882 68.5193 60.1424L68.5483 60.1792C68.5557 60.1645 68.5592 60.1535 68.5701 60.1424C68.6029 60.1057 68.6791 60.1461 68.6828 60.1645C68.6756 60.1718 68.6719 60.1718 68.5774 60.1792H68.5483C68.9152 60.2931 69.0931 60.4033 69.0968 60.4033C69.0714 60.3959 69.0459 60.3849 69.0205 60.3739C68.8934 60.3188 68.7663 60.2637 68.6356 60.2159L68.5483 60.1829C69.1876 60.4731 69.4819 60.6531 69.4854 60.6531C69.2204 60.5208 68.9588 60.3812 68.69 60.249L68.5483 60.1829C69.3947 60.6127 69.7797 60.8514 69.7797 60.8551C69.4273 60.6641 69.0787 60.4657 68.7263 60.2784L68.552 60.1865C69.5291 60.7192 69.9758 61.0021 69.9795 61.0057C69.5581 60.789 69.1623 60.5282 68.7481 60.2967L68.5483 60.1865H68.5448L68.5411 60.1829C68.4321 60.1535 68.3195 60.1278 68.2069 60.0947C68.138 60.0763 68.1125 60.069 68.1088 60.0616C68.1343 60.058 68.265 60.0874 68.5048 60.1718C68.5157 60.1755 68.5302 60.1829 68.5411 60.1865C68.2142 60.0249 67.88 59.8816 67.5604 59.709C67.5786 59.7127 67.9091 59.8596 68.4685 60.1498L68.5411 60.1902C68.1415 59.9625 67.7274 59.7531 67.3316 59.5216C67.3569 59.5363 67.782 59.7531 68.4502 60.1388L68.5375 60.1865L68.4539 60.1351C67.7638 59.72 67.3571 59.5033 67.3571 59.5033C67.7457 59.742 68.1488 59.9551 68.5411 60.1902C68.5448 60.1939 68.552 60.2012 68.5557 60.2086C68.7772 60.4657 68.7772 60.4657 68.7918 60.4694C68.7881 60.4547 68.7372 60.3739 68.5411 60.1939C68.5229 60.2747 68.4721 60.2894 68.4502 60.2784C68.4249 60.2637 68.443 60.2196 68.5302 60.1976C68.5338 60.1976 68.5375 60.1976 68.5411 60.1939C68.9116 60.4657 69.0823 60.6163 69.1005 60.6421C68.9152 60.5172 68.7554 60.3629 68.5774 60.2233L68.5411 60.1939L68.5992 60.2343C68.8607 60.4143 69.1077 60.609 69.3729 60.7816C69.3656 60.7743 69.1223 60.5833 68.5411 60.1976H68.5375L68.5738 60.2196L68.5557 60.2086L68.5375 60.1976L68.5557 60.1792ZM68.5629 60.1829L68.5592 60.1792L68.7626 60.2967C69.1985 60.5539 69.6235 60.8367 70.0666 61.0829C70.063 61.0792 69.6307 60.7927 68.5592 60.1792L68.5557 60.1755H68.552L68.5592 60.1829H68.5629ZM20.2476 136.813C19.7282 136.423 19.2452 135.99 18.7185 135.611C18.7113 135.608 18.7039 135.604 18.6967 135.597C18.7294 135.659 19.2197 136.052 19.2415 136.071C19.543 136.295 19.9462 136.592 20.2476 136.813ZM21.261 137.511C21.3809 137.595 21.5007 137.68 21.6243 137.764L22.1618 138.113L22.2599 138.176C21.5588 137.727 20.9814 137.11 20.2948 136.647C20.2767 136.636 20.2549 136.625 20.2367 136.618C20.2331 136.622 20.2295 136.629 20.2295 136.633C20.3058 136.754 20.6907 137.103 21.261 137.514V137.511ZM22.4197 138.238C22.554 138.348 22.7139 138.458 22.8919 138.569C22.9645 138.613 23.059 138.672 23.1316 138.712C23.0226 138.642 22.9354 138.547 22.801 138.396C22.5577 138.121 22.3978 137.955 22.2018 137.827C22.0456 137.738 22.031 137.783 22.0492 137.83C22.071 137.893 22.18 138.04 22.4233 138.234L22.4197 138.238ZM23.6547 138.976C23.6473 139.002 23.6656 139.028 23.6982 139.05C23.7635 139.087 23.8471 139.138 23.9125 139.175C24.2249 139.347 24.4101 139.307 24.381 139.193C24.3592 139.109 24.2358 139.032 24.1958 139.01C23.8907 138.848 23.6728 138.896 23.6547 138.976ZM24.8859 139.678C24.7915 139.641 24.6499 139.586 24.4937 139.502C24.5735 139.546 24.6825 139.605 24.7624 139.649C25.6124 140.108 26.179 140.244 26.2334 140.185C26.2299 140.163 26.2153 140.152 26.1535 140.115C25.7504 139.909 25.3037 139.836 24.8859 139.678ZM26.0337 140.299C25.9175 140.244 25.6814 140.137 25.4271 140.005L25.5106 140.049C25.6233 140.108 25.7686 140.181 25.8811 140.24C27.2359 140.923 27.9224 141.103 27.9914 141.111C27.9878 141.096 27.9696 141.085 27.9552 141.078C27.3304 140.776 26.662 140.585 26.0337 140.299ZM27.0253 140.802C26.9672 140.776 26.8909 140.74 26.8364 140.71L27.2214 140.894L27.8134 141.166C29.0702 141.724 29.4952 141.845 29.4988 141.845C29.4952 141.842 29.4878 141.838 29.4843 141.834C28.6706 141.474 27.8353 141.181 27.029 140.802H27.0253ZM15.3152 132.783C15.5367 132.989 15.8309 133.26 16.0561 133.462C14.9737 132.467 14.0076 131.35 12.9506 130.329C13.0087 130.428 13.5971 131.075 14.2437 131.732L15.3187 132.783H15.3152ZM15.7945 133.11C16.6009 133.911 17.4145 134.605 17.6143 134.763C17.5997 134.744 14.6614 131.681 14.3707 131.449C14.3599 131.442 14.349 131.435 14.3381 131.431C14.3344 131.435 14.3272 131.442 14.3199 131.446C14.4107 131.637 14.9845 132.316 15.791 133.113L15.7945 133.11ZM17.4763 134.293C18.1591 135.027 18.98 135.733 19.0962 135.773C19.0818 135.663 17.262 133.455 16.6735 133.033C16.6045 132.992 16.59 132.985 16.5501 132.985C16.4666 133.077 16.8661 133.639 17.4763 134.293ZM19.819 135.81C20.2404 136.383 21.0721 137.173 21.1157 136.993C21.1557 136.838 20.5345 135.527 19.7645 135.009C19.4014 134.803 19.4268 135.042 19.4521 135.152C19.4704 135.229 19.543 135.442 19.8154 135.81H19.819ZM22.5142 137.459C22.6485 138.025 23.3568 138.661 23.6728 138.201C23.8362 137.966 23.76 137.448 23.2006 137.085C22.6812 136.805 22.4233 137.055 22.5177 137.456L22.5142 137.459ZM25.2891 139.079C25.0312 139.241 24.9695 139.494 25.6596 139.667C26.4768 139.873 27.1633 139.663 26.9054 139.289C26.8473 139.204 26.7638 139.153 26.6839 139.101C26.11 138.807 25.5215 138.929 25.2891 139.079ZM27.9696 140.574C27.3449 140.549 27.3014 140.582 27.2795 140.6C27.3885 140.934 30.0509 141.401 30.1562 141.107C30.1816 141.041 30.0726 140.975 30.0073 140.934C29.4952 140.685 28.6162 140.6 27.9696 140.574ZM30.3887 141.849C29.9782 141.765 29.5787 141.621 29.1573 141.596C29.4734 141.934 32.844 142.753 33.0366 142.54C33.0292 142.51 33.0183 142.503 32.953 142.466C32.6043 142.312 32.3064 142.25 30.385 141.849H30.3887ZM10.4262 127.342L11.9953 129.289C10.8657 127.948 9.89229 126.49 8.83168 125.094C8.86438 125.153 8.87164 125.168 9.02419 125.395L10.4226 127.339L10.4262 127.342ZM11.3924 128.305C12.1406 129.293 12.9905 130.252 13.1467 130.355C13.154 130.204 10.5207 126.615 10.1792 126.314C10.1647 126.303 10.1393 126.292 10.1211 126.288C10.0812 126.42 10.6623 127.342 11.3887 128.305H11.3924ZM13.4228 129.826C14.0911 130.792 15.0282 131.839 15.1807 131.795C15.2606 131.574 13.5572 128.797 12.8016 128.217C12.729 128.173 12.551 128.066 12.62 128.353C12.6455 128.463 12.7799 128.893 13.4264 129.826H13.4228ZM16.4992 131.89C17.0513 132.897 18.0938 134.028 18.2318 133.635C18.3553 133.279 17.6288 131.446 16.6191 130.737C16.0016 130.384 16.1542 131.038 16.1905 131.17C16.2449 131.361 16.3612 131.633 16.5029 131.89H16.4992ZM20.422 134.355C20.6435 135.259 21.6533 136.361 22.0856 135.733C22.3761 135.31 22.1582 134.216 21.2792 133.628C20.5672 133.238 20.2621 133.69 20.4256 134.351L20.422 134.355ZM24.6172 136.86C24.3048 137.683 25.3763 138.433 26.2553 138.003C26.84 137.716 26.9272 137.007 26.1644 136.519C25.3472 136.093 24.7697 136.46 24.6172 136.86ZM28.8014 139.248C28.3111 139.502 28.1985 139.88 28.9321 140.108C30.0219 140.45 31.6454 140.126 31.264 139.491C31.1914 139.373 31.0861 139.307 30.9734 139.237C30.1671 138.837 29.2337 139.024 28.8014 139.248ZM32.7169 141.375C32.4699 141.401 31.6781 141.507 31.8669 141.706C32.2738 142.132 35.4882 142.426 35.6081 141.86C35.6299 141.75 35.4882 141.669 35.4047 141.618C34.6638 141.276 33.3671 141.305 32.7133 141.375H32.7169ZM36.1057 143.098C34.8344 143.036 34.7545 143.087 34.7145 143.113C34.8018 143.274 36.2473 143.561 37.3297 143.675C38.5283 143.8 39.273 143.73 39.2766 143.59C39.2766 143.554 39.2185 143.521 39.1677 143.491C38.601 143.26 37.1918 143.15 36.1057 143.098ZM7.46235 122.728C8.09798 123.849 8.82443 124.936 8.97334 125.039C8.99877 124.852 6.75045 120.759 6.43807 120.429C6.42719 120.421 6.41629 120.414 6.40902 120.407C6.31095 120.546 6.98291 121.872 7.46598 122.725L7.46235 122.728ZM9.39467 124.33C10.0775 125.623 11.0292 126.894 11.1236 126.637C11.2253 126.347 9.79058 123.114 8.93339 122.398C8.71182 122.262 8.65371 122.405 8.75905 122.82C8.88979 123.331 9.21306 123.985 9.3983 124.33H9.39467ZM12.7509 126.692C13.3211 128.018 14.4506 129.422 14.6758 128.87C14.8901 128.342 14.102 126.016 12.9869 125.19C12.2314 124.749 12.4675 125.818 12.4966 125.943C12.5329 126.097 12.6091 126.35 12.7544 126.692H12.7509ZM17.4363 129.73C17.745 131.067 19.0418 132.438 19.5502 131.681C19.9388 131.104 19.5829 129.466 18.4461 128.687C17.5562 128.191 17.2294 128.845 17.4326 129.73H17.4363ZM22.8447 133.044C22.6957 134.241 24.0178 135.494 24.9913 134.715C25.6269 134.204 25.5615 133.047 24.5263 132.371C23.5856 131.872 22.9318 132.32 22.8447 133.044ZM28.4164 136.298C27.7662 137.173 28.7469 138.095 30.0835 137.863C31.3004 137.654 31.7144 136.64 30.8391 136.027C30.8028 136.001 30.7482 135.972 30.7119 135.946C29.6949 135.431 28.7615 135.839 28.42 136.298H28.4164ZM33.8138 139.307C33.1782 139.638 32.9494 140.145 33.7848 140.431C35.0669 140.872 37.4133 140.336 36.9557 139.505C36.8758 139.358 36.7486 139.281 36.6143 139.2C35.6299 138.73 34.3768 139.017 33.8175 139.303L33.8138 139.307ZM38.6919 141.879C38.0453 142.018 37.4133 142.272 37.7583 142.514C38.6119 143.105 42.215 142.815 42.0915 142.161C42.0697 142.055 41.9681 141.992 41.8554 141.93C40.9547 141.541 39.3892 141.724 38.6882 141.879H38.6919ZM43.054 144.296L43.3192 144.288H43.3375H43.3556L43.054 144.296ZM4.39679 116.7C4.84719 117.832 5.35569 118.926 5.5046 119.15C5.55545 118.919 3.57229 114.169 3.55049 114.132C3.54686 114.129 3.5396 114.121 3.53234 114.118C3.51054 114.327 3.96457 115.62 4.39679 116.7ZM5.8533 118.159C6.42355 119.643 7.24443 121.02 7.36792 120.697C7.50231 120.344 6.35454 116.693 5.55183 115.943C5.20677 115.727 5.34843 116.472 5.42471 116.803C5.48645 117.071 5.61358 117.527 5.85693 118.159H5.8533ZM9.10046 120.594C9.60534 122.17 10.7277 123.775 11.0219 123.077C11.3306 122.354 10.5497 119.643 9.46005 118.79C8.76268 118.375 8.78447 119.367 8.96971 120.135C9.0024 120.275 9.05688 120.455 9.10046 120.59V120.594ZM14.033 123.911C14.3526 125.583 15.8526 127.273 16.452 126.266C16.8915 125.528 16.4775 123.496 15.1735 122.57C14.0947 121.957 13.855 122.986 14.033 123.911ZM20.342 127.879C20.2804 129.407 21.8421 131.031 22.8845 130.083C23.5566 129.477 23.5529 127.846 22.1726 126.92C21.0758 126.325 20.3783 126.938 20.342 127.879ZM27.1052 131.923C26.564 133.268 28.1077 134.587 29.4988 133.966C30.5848 133.481 30.7954 132.089 29.5242 131.273C28.2929 130.634 27.3667 131.269 27.1052 131.923ZM33.8575 135.78C33.0801 136.589 33.6031 137.665 35.1977 137.661C36.8395 137.658 37.9363 136.541 37.1518 135.67C37.0319 135.534 36.883 135.446 36.7668 135.373C35.5863 134.792 34.355 135.262 33.8538 135.78H33.8575ZM40.1883 139.223C39.3747 139.667 39.1131 140.303 40.0793 140.604C41.6848 141.103 44.2818 140.203 43.8314 139.303C43.7478 139.138 43.6099 139.054 43.4609 138.965C42.3495 138.458 40.8639 138.855 40.1919 139.223H40.1883ZM45.6766 142.011C44.8302 142.275 44.1656 142.676 44.6958 142.933C45.8944 143.51 49.7337 142.727 49.3596 141.981C49.3196 141.901 49.218 141.842 49.1416 141.801C48.2372 141.441 46.5737 141.732 45.6729 142.011H45.6766ZM2.83133 112.16C2.44268 110.789 2.07583 109.173 1.88696 108.181C2.163 109.379 2.50443 110.977 2.83133 112.16ZM3.03473 111.509C3.35435 112.78 3.87376 114.206 4.10622 114.213C4.42584 113.908 3.39795 109.64 2.86038 109.026C2.55164 108.817 2.72598 110.047 2.86038 110.727C2.90397 110.951 2.9766 111.271 3.03835 111.513L3.03473 111.509ZM5.70801 113.747C6.07122 115.418 6.99744 117.112 7.37882 116.476C7.78562 115.8 7.20083 112.534 6.16567 111.656C5.5155 111.26 5.42107 112.431 5.70801 113.747ZM10.408 117.068C10.6587 118.919 12.0534 120.77 12.7472 119.742C13.3066 118.915 12.9433 116.414 11.603 115.411C10.5424 114.797 10.2664 116.01 10.4117 117.064L10.408 117.068ZM17.0077 121.354C16.9859 123.099 18.6785 125.035 19.7972 124.055C20.6035 123.349 20.5491 121.222 18.9691 120.131C17.6361 119.389 17.0223 120.399 17.0114 121.351L17.0077 121.354ZM24.6788 126.06C24.2393 127.835 26.1245 129.466 27.5592 128.555C28.5326 127.938 28.765 126.16 27.2105 125.138C25.8049 124.392 24.8859 125.23 24.6788 126.06ZM32.5971 130.693C31.8743 131.938 33.0656 133.507 34.8962 133.099C36.5671 132.724 37.0756 131.023 35.7861 130.116C35.7353 130.079 35.6626 130.039 35.6118 130.006C34.2206 129.304 33.0111 129.987 32.6006 130.696L32.5971 130.693ZM40.2791 134.983C39.273 135.953 39.9086 137.059 41.4886 137.099C43.421 137.147 44.9319 135.773 44.0566 134.763C43.9295 134.616 43.7696 134.52 43.6425 134.443C42.3458 133.83 40.8929 134.388 40.2754 134.983H40.2791ZM47.242 138.664C46.3339 139.215 46.0071 139.99 47.0677 140.277C48.7857 140.743 51.6369 139.535 51.1902 138.536C51.1102 138.352 50.9614 138.267 50.8088 138.176C49.6283 137.669 47.9939 138.205 47.242 138.664ZM53.0026 141.467C52.0982 141.845 51.3754 142.367 51.9239 142.609C52.229 142.745 52.8175 142.712 53.0099 142.705C54.2594 142.334 55.4943 141.897 56.7183 141.401C56.9037 141.122 56.7619 141.012 56.5876 140.916C55.6868 140.6 53.9107 141.085 53.0063 141.467H53.0026ZM1.4075 104.783C1.54553 105.999 1.79252 107.377 1.93781 107.494C2.18843 107.145 1.59274 102.476 1.36755 102.076C1.36029 102.068 1.34939 102.061 1.34212 102.057C1.12783 102.311 1.40025 104.758 1.40387 104.783H1.4075ZM3.21997 106.638C3.41248 108.464 4.07353 109.989 4.46217 109.5C4.94525 108.89 4.71643 105.198 3.80111 104.317C3.25266 103.975 3.07468 105.253 3.21997 106.638ZM7.37155 109.772C7.48415 111.701 8.65371 113.629 9.43463 112.67C10.1356 111.807 9.96129 108.905 8.65007 107.865C7.65849 107.281 7.30617 108.629 7.37155 109.772ZM13.7315 114.059C13.6552 116.241 15.4931 118.126 16.6263 117.027C17.578 116.105 17.3273 113.699 15.7801 112.59C14.4288 111.822 13.7678 112.986 13.7315 114.059ZM21.9185 119.22C21.5334 121.215 23.4876 123.099 24.9913 122.188C26.2444 121.428 26.2697 119.213 24.5809 118.074C23.0553 117.247 22.1037 118.247 21.9185 119.22ZM30.7301 124.495C30.0037 126.262 31.8852 128.048 33.6904 127.302C35.2086 126.674 35.5718 124.679 33.8538 123.57C32.2956 122.761 31.0897 123.625 30.7301 124.495ZM39.5491 129.539C38.5756 130.942 39.8468 132.471 41.7466 132.177C43.7769 131.861 44.645 129.884 43.1958 128.87C43.1413 128.834 43.065 128.79 43.0068 128.753C41.5068 128.018 40.0794 128.771 39.5491 129.539ZM47.8304 134.05C46.7226 135.108 47.2129 136.262 48.8002 136.335C50.8705 136.431 52.8138 134.744 51.9021 133.646C51.7749 133.492 51.6115 133.393 51.4807 133.315C50.1296 132.706 48.5314 133.378 47.8304 134.05ZM55.033 137.724C53.9071 138.499 53.78 139.303 54.7534 139.513C56.5767 139.909 59.6858 138.212 59.0176 137.184C58.9376 137.063 58.8105 136.989 58.7052 136.93C57.5392 136.471 55.8321 137.173 55.033 137.724ZM1.06972 100.665C1.04429 99.4896 1.17142 96.1945 1.24406 95.3385C1.16052 96.9365 1.06245 99.0672 1.06972 100.665ZM1.77436 99.4125C1.74167 101.183 2.07583 102.653 2.42452 102.271C2.94029 101.708 3.08921 97.6345 2.46448 96.8851C2.0722 96.6242 1.79978 97.9945 1.77436 99.4125ZM4.99973 102.124C4.92347 104.199 5.82787 105.904 6.58336 105.117C7.37519 104.295 7.53863 101.014 6.35817 99.9966C5.49371 99.475 5.04333 100.926 4.9961 102.124H4.99973ZM10.7059 106.165C10.4989 108.438 12.0462 110.345 13.252 109.309C14.3307 108.38 14.2691 105.562 12.7907 104.449C11.5268 103.722 10.8112 105.015 10.7095 106.165H10.7059ZM18.7367 111.388C18.3262 113.611 20.422 115.716 21.9911 114.65C23.1643 113.853 23.4295 111.377 21.5262 110.051C19.9353 109.169 18.9364 110.301 18.7367 111.385V111.388ZM28.1077 117.145C27.4321 119.187 29.5605 121.241 31.4094 120.326C32.9494 119.562 33.2 117.247 31.3367 116.017C29.6586 115.131 28.4419 116.142 28.1112 117.145H28.1077ZM37.7911 122.817C36.8648 124.624 38.6192 126.479 40.6823 125.866C42.531 125.318 43.2139 123.011 41.3361 121.817C39.6725 120.98 38.2596 121.898 37.7911 122.817ZM47.202 128.077C46.1087 129.565 47.2057 131.115 49.1888 130.884C51.3463 130.634 52.5995 128.533 51.2847 127.372C51.1866 127.284 51.034 127.192 50.9214 127.122C49.374 126.391 47.8123 127.243 47.202 128.081V128.077ZM55.7377 132.595C54.5426 133.811 55.0004 135.031 56.6421 135.009C58.8359 134.98 60.9172 132.842 59.7802 131.787C59.7004 131.714 59.5733 131.637 59.4788 131.582C58.1421 131.012 56.4859 131.831 55.7377 132.592V132.595ZM62.8168 136.045C61.6835 136.956 61.5056 137.841 62.4245 137.974C62.8495 138.036 63.329 137.915 63.5868 137.849C64.6292 137.184 65.6499 136.471 66.6524 135.711C66.8121 135.281 66.7431 135.06 66.3945 134.869C65.3121 134.495 63.6231 135.391 62.8168 136.045ZM1.7235 92.3924C1.56733 93.3878 1.39662 95.03 1.61454 95.1916C2.01772 95.1219 2.82406 90.3095 2.53349 89.7107C2.52259 89.7033 2.51169 89.696 2.50079 89.6887C2.23928 89.7328 1.88333 91.3712 1.7235 92.3924ZM3.77933 94.5157C3.48511 96.437 3.9355 98.0386 4.64015 97.5757C5.59541 96.9513 6.19472 93.1601 5.24309 92.2197C4.54572 91.7863 3.9682 93.2998 3.77933 94.512V94.5157ZM8.55201 98.1267C8.1561 100.364 9.34382 102.256 10.5679 101.341C11.7883 100.43 12.0643 97.3186 10.6986 96.2238C9.56539 95.5589 8.76268 96.9365 8.55201 98.1267ZM15.889 103.079C15.3768 105.345 17.2148 107.502 18.8675 106.576C20.3493 105.746 20.5454 102.862 18.7402 101.561C17.2039 100.695 16.1469 101.925 15.8854 103.079H15.889ZM25.369 109.059C24.6499 111.366 26.8909 113.596 28.8414 112.512C30.4177 111.638 30.6466 109.089 28.7106 107.777C26.9707 106.84 25.7105 107.961 25.369 109.059ZM35.5935 115.187C34.7219 117.237 36.705 119.341 38.8118 118.603C40.6859 117.945 41.2453 115.326 39.2294 114.015C37.4533 113.1 36.0367 114.151 35.5935 115.183V115.187ZM55.4725 126.299C54.3102 127.923 55.389 129.543 57.3976 129.19C59.7221 128.779 61.0116 126.288 59.4534 125.212C59.3988 125.175 59.3226 125.131 59.2645 125.098C57.7354 124.411 56.1263 125.388 55.4725 126.299ZM63.8629 130.582C62.7333 131.868 63.0129 133.106 64.4258 133.084C66.5834 133.047 68.9007 130.509 67.7711 129.414C67.6985 129.344 67.5823 129.275 67.495 129.223C66.2419 128.735 64.6183 129.726 63.8629 130.582ZM2.77321 87.0695L2.43905 88.3184C2.70057 87.4073 3.93914 83.5612 4.16071 82.922C3.7321 84.1637 3.12553 85.8058 2.77321 87.0695ZM3.81564 87.062C3.28535 88.8584 3.32893 90.3316 3.90282 89.9752C4.72733 89.4646 5.99496 85.4237 5.37021 84.6229C4.88714 84.3069 4.1716 85.8609 3.81564 87.062ZM7.29528 90.0156C6.70322 92.0544 7.32433 93.8066 8.44305 93.2483C9.79058 92.5798 10.724 89.0311 9.50364 87.9474C8.55928 87.3816 7.64396 88.8181 7.29528 90.0156ZM13.5318 94.4495C12.8453 96.7051 14.2182 98.7659 15.8672 97.9504C17.4835 97.1496 18.0575 94.005 16.3976 92.7377C15.0209 91.9479 13.8949 93.263 13.5353 94.4495H13.5318ZM22.3615 100.206C21.588 102.506 23.6183 104.831 25.6015 103.924C27.3595 103.119 27.7916 100.177 25.823 98.7953C24.0868 97.8365 22.7538 99.0414 22.3615 100.202V100.206ZM32.735 106.587C31.8524 108.802 33.9663 111.109 36.1093 110.268C38.0163 109.522 38.5466 106.66 36.4653 105.276C34.6347 104.313 33.1819 105.463 32.735 106.587ZM71.3778 127.669C70.2954 129.131 70.5134 130.402 71.8173 130.23C72.442 130.149 73.0342 129.756 73.2302 129.627C73.8405 128.948 74.4362 128.246 75.0173 127.522C75.4821 126.314 74.9119 125.998 74.7267 125.891C73.6044 125.509 72.0934 126.7 71.3778 127.669ZM5.5155 80.1816C4.80722 81.7061 4.44401 82.9698 4.74184 82.8927C5.18134 82.7751 7.46598 78.3595 7.18995 77.6579C6.95748 77.4925 6.14024 78.8371 5.5155 80.1816ZM7.59674 82.382C6.7686 84.2592 6.94658 85.8609 7.93454 85.4421C9.24939 84.8836 10.8584 81.1955 9.91044 80.2182C9.17311 79.7664 8.11252 81.2102 7.59674 82.382ZM12.5765 86.173C11.6793 88.2854 12.5728 90.2213 14.1419 89.5711C15.8237 88.8732 16.9496 85.5265 15.504 84.34C14.3126 83.6493 13.074 84.9976 12.5765 86.173ZM20.2912 91.3969C19.3178 93.7369 21.1411 96.0402 23.2006 95.0741C25.0204 94.2218 25.6705 91.2279 23.8072 89.8614C22.1981 88.9613 20.7852 90.214 20.2948 91.3932L20.2912 91.3969ZM30.3233 97.7374C29.3281 100.088 31.4202 102.48 33.6649 101.554C35.619 100.75 36.2364 97.7557 34.1625 96.3341C32.3356 95.3569 30.8173 96.5655 30.3233 97.7374ZM41.1872 104.258C40.1592 106.572 42.2914 108.912 44.5942 107.998C46.61 107.197 47.2529 104.243 45.1244 102.844C43.2648 101.896 41.7029 103.097 41.1872 104.254V104.258ZM7.36429 76.2913C7.35702 76.306 7.34612 76.3207 7.34249 76.3353C7.62944 76.0011 10.557 71.5745 10.5715 71.545L10.5315 71.5855C9.55086 72.9777 8.23964 74.833 7.36429 76.2913ZM9.39105 75.2994C8.41035 76.8533 8.10162 78.2015 8.75541 78.0767C9.76879 77.8819 12.3767 74.0946 11.7302 73.2165C11.2289 72.8933 10.063 74.2377 9.39467 75.2994H9.39105ZM12.8925 78.286C11.8282 80.0933 12.0934 81.7612 13.3973 81.4783C15.0791 81.111 17.0623 77.6395 15.8128 76.5154C14.8538 75.9423 13.5244 77.2061 12.8888 78.286H12.8925ZM19.2125 82.7898C18.0938 84.8543 19.1362 86.8894 21.043 86.3604C23.0699 85.7984 24.3992 82.6208 22.663 81.2873C21.2756 80.4939 19.8081 81.6877 19.2088 82.7898H19.2125ZM28.1876 88.6454C27.1015 90.8348 28.8523 93.1933 31.0643 92.5283C33.2435 91.8744 34.1662 88.8181 32.0667 87.3377C30.3161 86.3715 28.7469 87.5213 28.1876 88.6454ZM38.7718 95.1622C37.6857 97.495 39.8287 99.9231 42.1461 98.9827C44.1801 98.1561 44.8411 95.2431 42.7126 93.8214C40.8748 92.8553 39.302 94.0234 38.7718 95.1622ZM12.6926 69.3152C11.6103 70.5532 10.9529 71.648 11.3197 71.6112C11.8827 71.5561 15.228 68.0626 15.0064 67.3866C14.7449 67.1956 13.4954 68.4005 12.6926 69.3152ZM14.6795 71.4422C13.4954 72.9044 13.332 74.315 14.3526 74.1863C15.8382 73.999 18.5115 70.803 17.5671 69.8186C16.8406 69.3703 15.4386 70.4981 14.6758 71.4422H14.6795ZM19.5139 75.1305C18.2572 76.8644 18.7875 78.6203 20.4728 78.3153C22.4269 77.9627 24.3557 74.9504 22.8991 73.7529C21.744 73.0769 20.2223 74.1533 19.5139 75.1342V75.1305ZM27.029 80.2257C25.7758 82.2167 27.2359 84.3914 29.4262 83.8037C31.5256 83.2416 32.6842 80.3909 30.8282 79.0355C29.2737 78.1611 27.6718 79.2043 27.029 80.2257ZM36.8358 86.4303C35.7099 88.5279 37.4933 90.8275 39.7669 90.2176C41.9681 89.6262 42.8906 86.7057 40.7586 85.2437C39.0006 84.296 37.4061 85.3686 36.8321 86.4303H36.8358ZM47.4818 92.8259C46.4283 95.1181 48.5605 97.4655 50.8378 96.5177C52.7992 95.7022 53.384 92.8737 51.2919 91.507C49.5048 90.5887 47.9866 91.7274 47.4818 92.8259ZM16.1868 65.4654L15.4712 66.123C15.4277 66.1634 15.3842 66.2075 15.3442 66.2515C15.5367 66.2038 19.572 62.7433 19.5975 62.7103C19.5685 62.7176 19.5648 62.7176 19.4158 62.8278C18.4424 63.6139 17.1167 64.6278 16.1868 65.4654ZM17.7523 65.6564C16.5464 66.7365 15.9544 67.7945 16.5101 67.8716C17.3528 67.9892 21.1594 65.0466 20.5709 64.198C20.0987 63.8858 18.6386 64.8629 17.7559 65.6564H17.7523ZM20.9486 68.4153C19.6556 69.7194 19.5793 71.1043 20.8034 71.1116C22.6304 71.1226 25.2419 68.294 24.3411 67.2801C24.3157 67.2508 24.2721 67.2176 24.243 67.1883C23.3459 66.6482 21.7731 67.5813 20.9486 68.4153ZM26.8073 72.603C25.4707 74.1901 26.1281 75.9423 27.9987 75.777C30.218 75.5823 31.965 72.8528 30.632 71.6626C30.5885 71.6223 30.523 71.5782 30.4795 71.545C29.1901 70.803 27.5556 71.7177 26.811 72.603H26.8073ZM35.1686 78.073C33.9047 79.9427 35.481 82.1175 37.7257 81.6033C39.8433 81.1183 40.9729 78.4256 39.0733 77.0885C37.4461 76.1884 35.8078 77.1215 35.165 78.073H35.1686ZM45.1026 84.2005C44.042 86.1768 45.8363 88.4176 48.0083 87.8336C50.0678 87.2788 50.9105 84.4318 48.8729 83.069C47.1694 82.1727 45.6438 83.1902 45.1026 84.2005ZM55.4253 90.2691C54.5137 92.4769 56.613 94.7397 58.6797 93.7773C60.4268 92.9654 60.8663 90.1662 58.9195 88.9135C57.2414 88.0759 55.8685 89.2001 55.4253 90.2691ZM22.2126 61.1784C20.9595 61.9866 20.1024 62.7543 20.3457 62.8535C20.8287 63.0556 25.0457 60.3629 24.9477 59.9147C24.7225 59.7494 23.3531 60.44 22.2126 61.1747V61.1784ZM23.9125 63.0482C22.6267 63.9739 22.1182 64.9842 22.841 65.1715C24.1595 65.5058 27.7735 62.9417 27.1887 62.0894C27.1742 62.0674 27.1452 62.0417 27.1269 62.0196C26.4659 61.6082 24.8533 62.376 23.9162 63.0482H23.9125ZM28.1876 66.3323C26.8437 67.4858 26.88 68.8414 28.2602 68.9663C30.178 69.1426 32.7714 66.8245 31.9578 65.6564C31.9069 65.583 31.8161 65.5058 31.7471 65.4507C30.7119 64.8409 29.0411 65.6013 28.1876 66.3323ZM34.889 70.8912C33.5814 72.3202 34.384 74.0798 36.3237 74.0284C38.5429 73.9733 40.2101 71.6626 38.9861 70.3402C38.9025 70.252 38.7718 70.1528 38.6737 70.083C37.2899 69.3006 35.6263 70.0866 34.889 70.8912ZM43.6897 76.4713C42.4875 78.2457 44.0566 80.3138 46.2359 79.8253C48.2554 79.3734 49.2724 76.8313 47.4128 75.5566C45.8472 74.7117 44.2926 75.5823 43.6897 76.4713ZM53.2859 82.2461C52.3561 84.171 54.0996 86.2797 56.1118 85.6661C57.9859 85.0968 58.6434 82.3563 56.7111 81.0926C55.1275 80.2771 53.7545 81.2762 53.2896 82.2461H53.2859ZM62.9511 87.8004C62.2429 89.9936 64.2297 92.0985 66.0312 91.0625C67.524 90.203 67.742 87.4808 65.9477 86.3531C64.4404 85.622 63.2853 86.7608 62.9511 87.8004ZM27.9442 57.8502L26.0737 58.7355C25.6269 58.9596 25.5106 59.0294 25.4562 59.0735C25.6742 59.0882 30.3887 56.8987 30.4142 56.8767C30.385 56.873 30.3269 56.8657 29.5859 57.1632L27.9406 57.8538L27.9442 57.8502ZM28.0895 58.9118C26.7601 59.5657 25.9683 60.271 26.3642 60.4547C27.1197 60.8074 31.4311 58.7612 31.224 58.1514C31.2168 58.1367 31.2023 58.1183 31.195 58.1036C30.8064 57.8502 29.2845 58.3241 28.0931 58.9118H28.0895ZM30.8063 61.2702C29.4769 62.0527 29.0411 63.0041 29.8875 63.2686C31.3258 63.7168 34.8563 61.7515 34.3805 60.7633C34.355 60.7082 34.2933 60.6494 34.2461 60.6053C33.4578 60.1314 31.758 60.7082 30.8028 61.2702H30.8063ZM35.8188 64.8629C34.4749 65.8842 34.6057 67.1846 36.073 67.3977C38.078 67.6842 40.6133 65.627 39.6907 64.4625C39.6325 64.3891 39.5345 64.3119 39.4619 64.2531C38.3504 63.6139 36.665 64.2237 35.8224 64.8629H35.8188ZM42.9959 69.565C41.7683 70.8765 42.6545 72.5921 44.5542 72.5773C46.6426 72.559 48.1863 70.3843 46.9805 69.161C46.8969 69.0765 46.7662 68.981 46.6718 68.9148C45.2806 68.1471 43.6861 68.8341 42.9959 69.5688V69.565ZM51.5571 74.8512C50.511 76.5154 52.0473 78.4697 54.0124 77.9738C55.8321 77.5146 56.653 75.1121 54.9131 73.944C53.4711 73.1835 52.0801 74.0137 51.5571 74.8476V74.8512ZM60.4668 80.0933C59.7548 81.9338 61.4257 83.9139 63.1364 83.2563C64.7345 82.6429 65.1377 80.0089 63.3762 78.8774C61.9668 78.1722 60.8263 79.164 60.4668 80.0933ZM69.1767 84.9865C68.7663 87.0363 70.4225 88.9356 71.8609 88.0686C73.183 87.2715 73.2157 84.4502 71.5412 83.4179C70.2482 82.8118 69.3801 83.9726 69.1767 84.9865ZM77.1421 89.2295C77.0114 91.4078 78.5368 93.1785 79.6157 92.1021C80.6144 91.103 80.3566 88.1494 78.8892 87.2788C77.7305 86.7902 77.2002 88.2192 77.1421 89.2295ZM83.8216 92.5209C83.9052 94.5855 84.9259 96.1174 85.674 95.2982C86.5204 94.3724 86.1826 90.8899 84.9077 90.1735C84.0396 89.8834 83.7818 91.4593 83.8216 92.5209ZM33.3743 56.0869C32.2919 56.4212 31.1514 56.8804 31.1696 57.0787C31.482 57.3065 36.3854 55.8444 36.3637 55.5322C36.1566 55.3816 34.6201 55.7048 33.3743 56.0869ZM34.7291 57.5967C33.3888 58.0926 32.6552 58.7392 33.1564 58.9816C34.0899 59.4371 38.2233 58.0302 38.1252 57.2918C38.1216 57.2514 38.0853 57.211 38.0599 57.1816C37.5514 56.8657 35.935 57.1522 34.7291 57.5967ZM38.1943 60.2674C36.8721 60.9139 36.5125 61.7955 37.4424 62.1151C38.9752 62.6441 42.4402 61.0241 41.8591 60.0506C41.8264 59.9955 41.7575 59.9367 41.7066 59.8927C40.853 59.3931 39.1059 59.8192 38.1943 60.2637V60.2674ZM43.6497 63.9813C42.3967 64.8703 42.6219 66.1266 44.0857 66.3801C46.1269 66.7365 48.1937 64.9548 47.5107 63.8748C47.42 63.7315 47.2892 63.636 47.1876 63.5588C46.058 62.9233 44.438 63.4229 43.6534 63.9813H43.6497ZM50.8378 68.5438C49.7445 69.7708 50.6126 71.343 52.3634 71.3027C54.2376 71.2622 55.538 69.2454 54.4083 68.1287C54.332 68.0516 54.2121 67.9708 54.1249 67.9083C52.8573 67.2251 51.4407 67.8679 50.8378 68.5402V68.5438ZM58.6906 73.2754C57.8552 74.8844 59.3044 76.6624 61.0007 76.1187C62.5299 75.6264 63.0783 73.3487 61.5092 72.3202C60.2416 71.6701 59.0975 72.4892 58.6869 73.2754H58.6906ZM66.6161 77.8342C66.1729 79.6452 67.7275 81.4379 69.0931 80.6922C70.339 80.0162 70.4153 77.4852 68.868 76.508C67.6767 75.9313 66.834 76.9379 66.6161 77.8342ZM74.1164 81.9448C74.0294 83.9286 75.5657 85.6588 76.5682 84.7073C77.4907 83.8294 77.1639 81.0963 75.7364 80.2293C74.6323 79.7407 74.1564 81.0228 74.1164 81.9448ZM80.7125 85.3429C80.9305 87.5213 82.2235 88.8732 82.8482 88.0062C83.5856 86.9812 82.8192 83.9029 81.6605 83.2269C80.7815 82.8927 80.6109 84.3474 80.7125 85.3392V85.3429ZM39.5054 54.4889C38.2559 54.6762 37.1228 54.904 36.9811 54.9775C37.1554 55.0179 42.3131 54.2171 42.3458 54.2024C42.2005 54.1619 40.9002 54.2795 39.5054 54.4889ZM39.6544 55.2126C38.3504 55.4514 37.3988 55.8114 37.5768 55.9987C37.9145 56.3624 42.9161 55.5212 42.8725 55.1097C42.8725 55.0987 42.8616 55.0877 42.8543 55.0767C42.5347 54.8709 40.9111 54.9811 39.6544 55.2089V55.2126ZM41.6775 56.9906C40.3409 57.3396 39.6688 57.8943 40.2356 58.1734C41.2453 58.673 45.3242 57.7032 45.139 57.0053C45.1281 56.9649 45.0845 56.9244 45.0554 56.8987C44.5033 56.5681 42.8616 56.682 41.6775 56.9906ZM45.4695 59.72C44.289 60.2012 43.9404 60.9286 44.7067 61.307C46.1668 62.0307 49.3849 60.6531 49.0581 59.7971C49.0181 59.6943 48.931 59.6245 48.8583 59.5694C48.0011 59.0771 46.3304 59.371 45.4695 59.72ZM50.9287 63.3054C49.8063 64.0805 50.0896 65.245 51.4553 65.4911C53.3114 65.8217 55.1129 64.2458 54.4482 63.276C54.3611 63.1474 54.2412 63.0629 54.1468 62.9931C53.0934 62.4127 51.6043 62.8352 50.9287 63.3054ZM57.4883 67.3646C56.544 68.5548 57.5283 70.039 59.1083 69.8075C60.6956 69.5761 61.4947 67.6659 60.365 66.8063C60.3287 66.7769 60.2743 66.7438 60.2343 66.7181C59.1483 66.1487 57.975 66.7549 57.4883 67.3646ZM64.3314 71.3982C63.7794 72.9153 65.1233 74.517 66.4418 73.9183C67.5895 73.3965 67.8147 71.2256 66.4962 70.3732C65.4501 69.8516 64.6002 70.6598 64.3314 71.3982ZM71.0364 75.1745C70.9057 77.0812 72.3985 78.4661 73.2883 77.7056C74.1928 76.9304 73.7387 74.4876 72.551 73.7493C71.6067 73.3121 71.0982 74.3186 71.0364 75.1745ZM77.1857 78.4586C77.4544 80.4607 78.7439 81.7539 79.325 80.9971C79.9934 80.1228 79.1471 77.3052 78.0138 76.6292C77.182 76.2839 77.0658 77.5696 77.1857 78.4586ZM82.3615 81.0191C82.8954 82.9625 83.858 84.1013 84.2139 83.5649C84.7443 82.7641 83.5311 79.3808 82.5068 78.8003C81.8276 78.5799 82.1726 80.3285 82.3615 81.0191ZM48.3316 54.0517C47.1367 54.037 45.5385 53.993 44.3435 54.0334C46.1269 53.9636 47.6996 54.0187 48.4769 54.0591L48.3316 54.0517ZM45.444 54.1913C44.2709 54.2171 43.2539 54.3236 43.0795 54.4411C43.243 54.7203 48.4624 54.4081 48.5059 54.386C48.5059 54.3824 48.5096 54.375 48.5096 54.3713C48.3534 54.2611 46.9078 54.1583 45.444 54.1913ZM46.3448 55.2273C44.9392 55.3265 44.1982 55.602 44.4125 55.7893C44.8302 56.153 49.7482 55.8665 49.6211 55.4844C49.6175 55.4734 49.6029 55.4624 49.5957 55.4514C49.2469 55.2383 47.6996 55.1318 46.3448 55.2273ZM48.7421 57.0861C47.5797 57.2808 46.9442 57.6996 47.3582 57.9934C48.1719 58.5739 52.3162 58.0008 52.0728 57.3395C52.0582 57.3028 52.0183 57.2698 51.9892 57.244C51.4263 56.9171 49.8572 56.8987 48.7421 57.0861ZM52.5449 59.6869C51.4953 60.058 51.212 60.7008 51.942 61.0572C53.3623 61.7551 56.159 60.6568 55.7993 59.8743C55.7595 59.7861 55.6759 59.7237 55.6105 59.6759C54.8078 59.2277 53.3042 59.4151 52.5414 59.6869H52.5449ZM57.5864 62.8939C56.573 63.6397 57.0307 64.6021 58.1095 64.7748C59.6495 65.0246 61.0661 63.6286 60.4812 62.8058C60.405 62.6992 60.3069 62.6331 60.2306 62.578C59.3553 62.1115 58.1349 62.4898 57.5864 62.8939ZM63.1256 66.2368C62.4245 67.416 63.4778 68.61 64.5966 68.3418C65.8533 68.0406 66.2238 66.2258 65.1705 65.5279C64.3096 65.0907 63.4561 65.6785 63.1256 66.2368ZM68.7228 69.4622C68.5085 71.0051 69.8087 72.2394 70.6078 71.6296C71.4178 71.0124 71.1054 68.9847 70.0993 68.3418C69.3111 67.9635 68.8207 68.7715 68.7228 69.4622ZM74.0366 72.379C74.3054 74.1349 75.4749 75.2957 75.9871 74.6456C76.5537 73.9219 75.7292 71.4717 74.7121 70.8434C74.0039 70.5349 73.924 71.6223 74.0402 72.379H74.0366ZM78.7257 74.7998C79.3795 76.6917 80.3929 77.7277 80.6399 77.0921C80.9595 76.2729 79.6555 73.4333 78.7004 72.8712C78.0938 72.6471 78.5114 74.1863 78.7221 74.7998H78.7257ZM51.7277 54.3787C50.5001 54.2207 49.4795 54.1509 49.2143 54.1656C49.2652 54.2134 54.5972 54.9077 54.6371 54.904C54.47 54.8305 53.2061 54.5697 51.7277 54.3787ZM51.8004 54.8158C50.6526 54.6983 49.6647 54.6946 49.552 54.8048C49.6138 54.8636 49.6901 54.9407 51.1683 55.1024C51.3173 55.1171 54.8187 55.4991 54.9095 55.3889C54.7171 55.2677 53.2931 54.9665 51.7967 54.8122L51.8004 54.8158ZM53.0426 55.9106C51.7786 55.8591 51.0993 56.0061 51.1975 56.175C51.3826 56.4983 55.8539 56.7628 56.1807 56.4689C56.1735 56.4542 56.1626 56.4322 56.1554 56.4175C55.803 56.2118 54.263 55.9583 53.0426 55.9106ZM55.3853 57.6004C54.2776 57.6812 53.8453 57.9677 54.0705 58.1992C54.6662 58.8126 58.3275 58.4526 58.3819 58.0449C58.3891 58.0008 58.3456 57.9641 58.3057 57.931C57.8153 57.6518 56.3587 57.5269 55.3853 57.5967V57.6004ZM58.7669 59.8265C57.7935 60.1241 57.7135 60.6568 58.2911 60.9396C59.4425 61.4943 61.7416 60.6531 61.4583 60.0359C61.4293 59.9698 61.3639 59.922 61.313 59.8853C60.7356 59.5694 59.5078 59.6024 58.7669 59.8265ZM62.8531 62.3539C62.0976 62.9968 62.5007 63.7939 63.3399 63.9005C64.4876 64.0437 65.4464 62.8315 64.9743 62.1776C64.9162 62.0968 64.8435 62.049 64.7854 62.0086C64.1388 61.6743 63.2526 62.016 62.8531 62.3539ZM67.1173 64.8703C66.7723 65.9613 67.6658 66.9458 68.4067 66.6116C69.184 66.2626 69.1512 64.6168 68.3595 64.0989C67.7638 63.8086 67.2771 64.3744 67.1173 64.8703ZM71.298 67.2251C71.4905 68.6209 72.4783 69.6164 72.8925 69.0948C73.3755 68.4851 72.5837 66.505 71.821 66.0275C71.2253 65.7556 71.2471 66.8283 71.3015 67.2287L71.298 67.2251ZM75.1372 69.2786C75.8054 70.9022 76.7172 71.8096 76.8842 71.2732C77.1095 70.5495 75.7147 68.1398 74.9447 67.6769C74.3925 67.4564 75.1081 69.2051 75.1372 69.2786ZM78.3771 70.8839C79.3977 72.6214 80.1096 73.3341 80.1823 72.9998C80.3239 72.3532 78.2681 69.352 77.5235 68.9258C77.5053 68.9185 77.4726 68.9148 77.4545 68.9221C77.3564 69.1169 78.1373 70.4724 78.3771 70.8839ZM58.1023 55.6497C56.751 55.2677 55.6759 55.0399 55.5706 55.0216C56.5077 55.286 57.4594 55.4991 58.3964 55.7709C59.2245 56.0134 60.0273 56.3293 60.8591 56.5497C60.7682 56.5057 59.6531 56.0869 58.1023 55.6461V55.6497ZM57.7463 55.7085C56.6094 55.4036 55.5742 55.2016 55.3599 55.2052C55.5234 55.3154 60.6992 56.6746 60.7247 56.671C60.514 56.5644 59.25 56.1089 57.7463 55.7085ZM58.1858 56.2228C57.1869 55.995 56.3043 55.8628 56.0791 55.9106C56.0791 55.9216 56.0791 55.9326 56.0754 55.9436C56.3043 56.0795 61.0624 57.1779 61.1678 57.1155C60.9934 57.0126 59.6531 56.5571 58.1821 56.2191L58.1858 56.2228ZM59.3771 57.1485C58.6144 57.0273 57.7535 56.9612 57.6628 57.1044C57.7607 57.424 61.9196 57.953 62.1776 57.8906C62.1739 57.8832 62.1702 57.8722 62.1666 57.8612C61.9087 57.7143 60.5939 57.3395 59.3771 57.1449V57.1485ZM61.2767 58.449C60.325 58.4196 59.9364 58.5996 60.1218 58.7832C60.2852 58.9449 60.8844 59.0735 61.6109 59.1028C62.4209 59.1359 63.743 59.0661 63.7212 58.9302C63.7176 58.9118 63.6921 58.8971 63.6776 58.8824C63.3653 58.7098 62.1957 58.4783 61.2767 58.4526V58.449ZM63.8048 60.058C63.1073 60.2416 62.9983 60.6053 63.3325 60.811C64.1425 61.3106 65.8206 60.5539 65.6935 60.1865C65.679 60.1461 65.6426 60.1204 65.61 60.0984C65.2721 59.922 64.3932 59.9037 63.8048 60.058ZM66.5869 61.7368C66.1257 62.3172 66.5253 62.9711 67.1282 62.927C67.92 62.8645 68.138 61.689 67.7275 61.3657C67.7166 61.3547 67.6985 61.3437 67.6839 61.3364C67.3243 61.16 66.8086 61.4613 66.5869 61.7404V61.7368ZM69.4019 63.3605C69.4891 64.4478 70.2228 65.087 70.5061 64.7197C70.8548 64.2678 70.2264 62.8241 69.7506 62.5156C69.3366 62.3282 69.3983 63.3494 69.3983 63.3605H69.4019ZM72.0752 64.8299C72.7544 66.2075 73.3683 66.7181 73.4772 66.4499C73.6697 65.9724 72.2459 63.9188 71.6902 63.5699C71.6176 63.5405 71.4831 63.4854 71.8282 64.2899C71.8609 64.3707 71.9553 64.5838 72.0752 64.8299ZM74.4362 66.0495C75.8635 68.0074 76.0778 67.9377 76.1069 67.8679C76.2704 67.5152 74.0366 64.8225 73.3682 64.4184C73.361 64.4148 73.3501 64.4111 73.3429 64.4111C73.332 64.4588 73.3175 64.514 74.4362 66.0458V66.0495ZM64.168 57.8538C62.8749 57.2624 61.8397 56.884 61.8325 56.8804C63.881 57.7473 63.881 57.7473 66.7505 59.1616C66.7396 59.1543 65.6753 58.5408 64.1716 57.8538H64.168ZM63.8011 57.762C62.5662 57.2147 61.6291 56.8804 61.4293 56.8179C61.4692 56.8473 61.4692 56.8473 61.8506 56.9979C62.3882 57.2147 63.2853 57.571 64.295 58.0228C65.0833 58.3755 65.8424 58.7869 66.6306 59.1433C66.6197 59.1359 65.4174 58.4747 63.8011 57.762ZM63.812 57.8869C62.6206 57.391 61.7162 57.0934 61.5456 57.064C61.5854 57.0898 61.64 57.1155 61.6835 57.1338C62.6787 57.5526 63.6994 57.9016 64.6947 58.3204C65.3594 58.6033 65.9949 58.9559 66.6705 59.213C66.489 59.1139 65.2649 58.493 63.8157 57.8869H63.812ZM64.1752 58.2139C63.1873 57.8428 62.4172 57.6151 62.1957 57.593C62.2211 57.6334 62.2211 57.6334 62.3482 57.6812C63.1909 58.0008 64.0518 58.2653 64.8944 58.5775C65.5482 58.82 66.1838 59.1175 66.8376 59.36C66.8412 59.36 66.8412 59.36 66.8449 59.36C66.685 59.2792 65.5228 58.7171 64.1752 58.2139ZM64.8762 58.7208C64.1062 58.482 63.4269 58.3351 63.2999 58.3792C63.3216 58.4122 63.3362 58.4416 63.6921 58.5518C63.7357 58.5665 67.1319 59.5767 67.1537 59.5841C67.0991 59.5547 66.0604 59.0918 64.8726 58.7245L64.8762 58.7208ZM65.8896 59.3894C65.214 59.2682 64.829 59.2975 64.8618 59.3931C64.869 59.4114 64.9234 59.5033 65.4538 59.5988C65.461 59.5988 67.5749 59.8706 67.5858 59.8706C67.5858 59.8669 67.5895 59.8669 67.5895 59.8633C67.4914 59.8118 66.6742 59.5327 65.8896 59.3894ZM67.1245 60.1571C66.6742 60.2416 66.558 60.4547 66.7614 60.5796C67.2153 60.8551 68.1125 60.2674 68.1088 60.1939C68.1088 60.1902 68.1016 60.1829 68.098 60.1792C68.0035 60.1351 67.5059 60.0874 67.1245 60.1608V60.1571ZM68.4176 60.9212C68.3086 61.4906 68.7045 61.8507 68.8934 61.6927C69.1623 61.4649 68.7772 60.598 68.621 60.4841C68.5411 60.451 68.4285 60.8514 68.4176 60.9212ZM69.6888 61.6376C70.4807 62.9307 70.6042 62.7654 70.6224 62.7213C70.7312 62.4237 69.4528 60.9874 69.1331 60.767C69.1368 60.789 69.1368 60.789 69.1949 60.8735C69.3875 61.1453 69.4963 61.3217 69.6925 61.6376H69.6888ZM70.8585 62.2658C72.1006 63.5845 72.1006 63.5845 72.2314 63.6286C72.235 63.6213 72.2423 63.6103 72.2459 63.6029C72.0571 63.0703 70.0413 61.2996 69.5907 61.0094C69.6235 61.0572 69.6707 61.0866 69.7106 61.127C69.9904 61.3841 70.3063 61.6817 70.8585 62.2658ZM71.85 62.758C73.5572 64.2752 73.5572 64.2752 73.5934 64.2935C73.5862 63.9739 70.7204 61.656 69.9721 61.1931C70.5787 61.7404 71.2399 62.2143 71.85 62.7543V62.758Z" fill="url(#paint1_linear_110_98)"/>
</g>
<defs>
<linearGradient id="paint0_linear_110_98" x1="150.697" y1="99.2617" x2="195.219" y2="128.774" gradientUnits="userSpaceOnUse">
<stop stop-color="#386AE7"/>
<stop offset="1" stop-color="#38E8DE"/>
</linearGradient>
<linearGradient id="paint1_linear_110_98" x1="1.06641" y1="54" x2="107.858" y2="85.8798" gradientUnits="userSpaceOnUse">
<stop stop-color="#386AE7"/>
<stop offset="1" stop-color="#38E8DE"/>
</linearGradient>
<clipPath id="clip0_110_98">
<rect width="200" height="200" fill="white"/>
</clipPath>
</defs>
</svg>
