<svg width="681" height="133" viewBox="0 0 681 133" fill="none" xmlns="http://www.w3.org/2000/svg">
<path d="M12.9 44.66C10.22 44.66 7.88 44.18 5.88 43.22C3.92 42.22 2.24 40.84 0.84 39.08L7.14 33.02C7.86 34.02 8.7 34.78 9.66 35.3C10.66 35.82 11.78 36.08 13.02 36.08C14.22 36.08 15.26 35.84 16.14 35.36C17.02 34.84 17.72 34.12 18.24 33.2C18.76 32.24 19.02 31.06 19.02 29.66V1.64H28.5V29.12C28.5 32.28 27.86 35.02 26.58 37.34C25.3 39.66 23.5 41.46 21.18 42.74C18.86 44.02 16.1 44.66 12.9 44.66ZM49.2136 44.66C46.2136 44.66 43.4936 44 41.0536 42.68C38.6536 41.32 36.7536 39.48 35.3536 37.16C33.9536 34.84 33.2536 32.24 33.2536 29.36C33.2536 26.48 33.9536 23.9 35.3536 21.62C36.7536 19.34 38.6536 17.54 41.0536 16.22C43.4536 14.86 46.1736 14.18 49.2136 14.18C52.2536 14.18 54.9736 14.84 57.3736 16.16C59.7736 17.48 61.6736 19.3 63.0736 21.62C64.4736 23.9 65.1736 26.48 65.1736 29.36C65.1736 32.24 64.4736 34.84 63.0736 37.16C61.6736 39.48 59.7736 41.32 57.3736 42.68C54.9736 44 52.2536 44.66 49.2136 44.66ZM49.2136 36.32C50.5336 36.32 51.6936 36.04 52.6936 35.48C53.6936 34.88 54.4536 34.06 54.9736 33.02C55.5336 31.94 55.8136 30.72 55.8136 29.36C55.8136 28 55.5336 26.82 54.9736 25.82C54.4136 24.78 53.6336 23.98 52.6336 23.42C51.6736 22.82 50.5336 22.52 49.2136 22.52C47.9336 22.52 46.7936 22.82 45.7936 23.42C44.7936 23.98 44.0136 24.78 43.4536 25.82C42.8936 26.86 42.6136 28.06 42.6136 29.42C42.6136 30.74 42.8936 31.94 43.4536 33.02C44.0136 34.06 44.7936 34.88 45.7936 35.48C46.7936 36.04 47.9336 36.32 49.2136 36.32ZM69.7439 44V14.84H78.9239V44H69.7439ZM74.3639 10.82C72.9239 10.82 71.7239 10.34 70.7639 9.38C69.8439 8.38 69.3839 7.18 69.3839 5.78C69.3839 4.34 69.8439 3.14 70.7639 2.18C71.7239 1.22 72.9239 0.739999 74.3639 0.739999C75.8039 0.739999 76.9839 1.22 77.9039 2.18C78.8239 3.14 79.2839 4.34 79.2839 5.78C79.2839 7.18 78.8239 8.38 77.9039 9.38C76.9839 10.34 75.8039 10.82 74.3639 10.82ZM104.648 44V27.38C104.648 25.86 104.168 24.64 103.208 23.72C102.288 22.76 101.108 22.28 99.6684 22.28C98.6684 22.28 97.7884 22.5 97.0284 22.94C96.2684 23.34 95.6684 23.94 95.2284 24.74C94.7884 25.5 94.5684 26.38 94.5684 27.38L91.0284 25.64C91.0284 23.36 91.5284 21.36 92.5284 19.64C93.5284 17.92 94.9084 16.6 96.6684 15.68C98.4684 14.72 100.488 14.24 102.728 14.24C104.888 14.24 106.788 14.76 108.428 15.8C110.108 16.8 111.428 18.14 112.388 19.82C113.348 21.5 113.828 23.34 113.828 25.34V44H104.648ZM85.3884 44V14.84H94.5684V44H85.3884ZM141.433 44V2.24H150.853V44H141.433ZM128.173 9.86V1.64H164.113V9.86H128.173ZM187.793 44V27.38C187.793 25.86 187.313 24.64 186.353 23.72C185.433 22.76 184.253 22.28 182.813 22.28C181.813 22.28 180.933 22.5 180.173 22.94C179.413 23.34 178.813 23.94 178.373 24.74C177.933 25.5 177.713 26.38 177.713 27.38L174.173 25.64C174.173 23.36 174.653 21.36 175.613 19.64C176.573 17.92 177.913 16.6 179.633 15.68C181.353 14.72 183.333 14.24 185.573 14.24C187.853 14.24 189.853 14.72 191.573 15.68C193.293 16.6 194.613 17.9 195.533 19.58C196.493 21.22 196.973 23.14 196.973 25.34V44H187.793ZM168.533 44V0.439999H177.713V44H168.533ZM217.269 44.66C214.109 44.66 211.289 44.02 208.809 42.74C206.369 41.42 204.449 39.6 203.049 37.28C201.649 34.96 200.949 32.34 200.949 29.42C200.949 26.5 201.629 23.9 202.989 21.62C204.389 19.3 206.269 17.48 208.629 16.16C210.989 14.84 213.649 14.18 216.609 14.18C219.489 14.18 222.029 14.8 224.229 16.04C226.429 17.28 228.149 19 229.389 21.2C230.669 23.4 231.309 25.92 231.309 28.76C231.309 29.28 231.269 29.84 231.189 30.44C231.149 31 231.049 31.66 230.889 32.42L205.749 32.48V26.18L226.989 26.12L223.029 28.76C222.989 27.08 222.729 25.7 222.249 24.62C221.769 23.5 221.049 22.66 220.089 22.1C219.169 21.5 218.029 21.2 216.669 21.2C215.229 21.2 213.969 21.54 212.889 22.22C211.849 22.86 211.029 23.78 210.429 24.98C209.869 26.18 209.589 27.64 209.589 29.36C209.589 31.08 209.889 32.56 210.489 33.8C211.129 35 212.009 35.94 213.129 36.62C214.289 37.26 215.649 37.58 217.209 37.58C218.649 37.58 219.949 37.34 221.109 36.86C222.269 36.34 223.289 35.58 224.169 34.58L229.209 39.62C227.769 41.3 226.029 42.56 223.989 43.4C221.949 44.24 219.709 44.66 217.269 44.66ZM265.046 44.66C261.566 44.66 258.486 43.92 255.806 42.44C253.166 40.96 251.086 38.92 249.566 36.32C248.086 33.68 247.346 30.68 247.346 27.32V1.64H256.826V27.86C256.826 29.54 257.186 31 257.906 32.24C258.626 33.48 259.606 34.44 260.846 35.12C262.126 35.76 263.526 36.08 265.046 36.08C266.646 36.08 268.046 35.76 269.246 35.12C270.446 34.44 271.386 33.5 272.066 32.3C272.786 31.06 273.146 29.6 273.146 27.92V1.64H282.626V27.38C282.626 30.74 281.886 33.72 280.406 36.32C278.926 38.92 276.866 40.96 274.226 42.44C271.586 43.92 268.526 44.66 265.046 44.66ZM302.386 44.66C298.906 44.66 295.906 44.1 293.386 42.98C290.906 41.82 288.626 40.08 286.546 37.76L292.666 31.7C294.026 33.26 295.526 34.48 297.166 35.36C298.846 36.2 300.786 36.62 302.986 36.62C304.986 36.62 306.526 36.26 307.606 35.54C308.726 34.82 309.286 33.82 309.286 32.54C309.286 31.38 308.926 30.44 308.206 29.72C307.486 29 306.526 28.38 305.326 27.86C304.166 27.34 302.866 26.84 301.426 26.36C300.026 25.88 298.626 25.34 297.226 24.74C295.826 24.1 294.526 23.32 293.326 22.4C292.166 21.44 291.226 20.26 290.506 18.86C289.786 17.42 289.426 15.62 289.426 13.46C289.426 10.86 290.046 8.62 291.286 6.74C292.566 4.86 294.326 3.44 296.566 2.48C298.806 1.48 301.386 0.98 304.306 0.98C307.266 0.98 309.966 1.5 312.406 2.54C314.886 3.58 316.926 5 318.526 6.8L312.406 12.86C311.126 11.54 309.826 10.56 308.506 9.92C307.226 9.28 305.766 8.96 304.126 8.96C302.486 8.96 301.186 9.28 300.226 9.92C299.266 10.52 298.786 11.4 298.786 12.56C298.786 13.64 299.146 14.52 299.866 15.2C300.586 15.84 301.526 16.4 302.686 16.88C303.886 17.36 305.186 17.84 306.586 18.32C308.026 18.8 309.446 19.36 310.846 20C312.246 20.64 313.526 21.46 314.686 22.46C315.886 23.42 316.846 24.66 317.566 26.18C318.286 27.66 318.646 29.5 318.646 31.7C318.646 35.74 317.206 38.92 314.326 41.24C311.446 43.52 307.466 44.66 302.386 44.66ZM331.006 44V35.72H341.506C344.066 35.72 346.306 35.22 348.226 34.22C350.146 33.18 351.626 31.68 352.666 29.72C353.706 27.76 354.226 25.44 354.226 22.76C354.226 20.08 353.686 17.78 352.606 15.86C351.566 13.94 350.086 12.46 348.166 11.42C346.286 10.38 344.066 9.86 341.506 9.86H330.706V1.64H341.626C344.826 1.64 347.766 2.16 350.446 3.2C353.166 4.2 355.526 5.66 357.526 7.58C359.566 9.46 361.126 11.7 362.206 14.3C363.326 16.86 363.886 19.7 363.886 22.82C363.886 25.9 363.326 28.74 362.206 31.34C361.126 33.94 359.586 36.18 357.586 38.06C355.586 39.94 353.226 41.4 350.506 42.44C347.826 43.48 344.906 44 341.746 44H331.006ZM324.646 44V1.64H334.066V44H324.646ZM366.701 44L383.501 1.64H392.021L408.641 44H398.681L385.961 8.84H389.381L376.481 44H366.701ZM376.241 36.32V28.64H399.341V36.32H376.241ZM431.058 44.72C427.858 44.72 424.898 44.16 422.178 43.04C419.498 41.92 417.138 40.36 415.098 38.36C413.058 36.36 411.478 34.04 410.358 31.4C409.238 28.72 408.678 25.84 408.678 22.76C408.678 19.64 409.238 16.76 410.358 14.12C411.478 11.48 413.038 9.18 415.038 7.22C417.038 5.22 419.378 3.68 422.058 2.6C424.778 1.48 427.738 0.919997 430.938 0.919997C434.098 0.919997 437.018 1.48 439.698 2.6C442.418 3.68 444.778 5.22 446.778 7.22C448.818 9.18 450.398 11.5 451.518 14.18C452.638 16.82 453.198 19.7 453.198 22.82C453.198 25.9 452.638 28.78 451.518 31.46C450.398 34.1 448.838 36.42 446.838 38.42C444.838 40.38 442.478 41.92 439.758 43.04C437.078 44.16 434.178 44.72 431.058 44.72ZM430.938 36.14C433.458 36.14 435.658 35.58 437.538 34.46C439.458 33.34 440.938 31.78 441.978 29.78C443.018 27.74 443.538 25.4 443.538 22.76C443.538 20.76 443.238 18.96 442.638 17.36C442.038 15.72 441.178 14.32 440.058 13.16C438.938 11.96 437.598 11.06 436.038 10.46C434.518 9.82 432.818 9.5 430.938 9.5C428.418 9.5 426.198 10.06 424.278 11.18C422.398 12.26 420.938 13.8 419.898 15.8C418.858 17.76 418.338 20.08 418.338 22.76C418.338 24.76 418.638 26.58 419.238 28.22C419.838 29.86 420.678 31.28 421.758 32.48C422.878 33.64 424.218 34.54 425.778 35.18C427.338 35.82 429.058 36.14 430.938 36.14ZM24.18 120.66C21.02 120.66 18.08 120.12 15.36 119.04C12.68 117.92 10.32 116.36 8.28 114.36C6.28 112.36 4.72 110.04 3.6 107.4C2.48 104.72 1.92 101.84 1.92 98.76C1.92 95.68 2.48 92.82 3.6 90.18C4.72 87.5 6.28 85.18 8.28 83.22C10.28 81.26 12.62 79.74 15.3 78.66C18.02 77.54 20.96 76.98 24.12 76.98C27.48 76.98 30.46 77.52 33.06 78.6C35.7 79.68 38 81.16 39.96 83.04L33.66 89.4C32.54 88.2 31.18 87.26 29.58 86.58C28.02 85.9 26.2 85.56 24.12 85.56C22.28 85.56 20.58 85.88 19.02 86.52C17.5 87.12 16.18 88 15.06 89.16C13.98 90.32 13.12 91.72 12.48 93.36C11.88 95 11.58 96.8 11.58 98.76C11.58 100.76 11.88 102.58 12.48 104.22C13.12 105.86 13.98 107.26 15.06 108.42C16.18 109.58 17.5 110.48 19.02 111.12C20.58 111.76 22.28 112.08 24.12 112.08C26.28 112.08 28.16 111.74 29.76 111.06C31.36 110.38 32.74 109.44 33.9 108.24L40.26 114.6C38.22 116.48 35.88 117.96 33.24 119.04C30.64 120.12 27.62 120.66 24.18 120.66ZM57.9441 120.66C54.9441 120.66 52.2241 120 49.7841 118.68C47.3841 117.32 45.4841 115.48 44.0841 113.16C42.6841 110.84 41.9841 108.24 41.9841 105.36C41.9841 102.48 42.6841 99.9 44.0841 97.62C45.4841 95.34 47.3841 93.54 49.7841 92.22C52.1841 90.86 54.9041 90.18 57.9441 90.18C60.9841 90.18 63.7041 90.84 66.1041 92.16C68.5041 93.48 70.4041 95.3 71.8041 97.62C73.2041 99.9 73.9041 102.48 73.9041 105.36C73.9041 108.24 73.2041 110.84 71.8041 113.16C70.4041 115.48 68.5041 117.32 66.1041 118.68C63.7041 120 60.9841 120.66 57.9441 120.66ZM57.9441 112.32C59.2641 112.32 60.4241 112.04 61.4241 111.48C62.4241 110.88 63.1841 110.06 63.7041 109.02C64.2641 107.94 64.5441 106.72 64.5441 105.36C64.5441 104 64.2641 102.82 63.7041 101.82C63.1441 100.78 62.3641 99.98 61.3641 99.42C60.4041 98.82 59.2641 98.52 57.9441 98.52C56.6641 98.52 55.5241 98.82 54.5241 99.42C53.5241 99.98 52.7441 100.78 52.1841 101.82C51.6241 102.86 51.3441 104.06 51.3441 105.42C51.3441 106.74 51.6241 107.94 52.1841 109.02C52.7441 110.06 53.5241 110.88 54.5241 111.48C55.5241 112.04 56.6641 112.32 57.9441 112.32ZM78.4744 120V76.44H87.6544V120H78.4744ZM94.1189 120V76.44H103.299V120H94.1189ZM121.943 120.6C119.263 120.6 116.863 119.94 114.743 118.62C112.663 117.3 111.003 115.5 109.763 113.22C108.563 110.94 107.963 108.34 107.963 105.42C107.963 102.5 108.563 99.9 109.763 97.62C111.003 95.34 112.663 93.54 114.743 92.22C116.863 90.9 119.263 90.24 121.943 90.24C123.903 90.24 125.663 90.62 127.223 91.38C128.823 92.14 130.123 93.2 131.123 94.56C132.123 95.88 132.683 97.4 132.803 99.12V111.72C132.683 113.44 132.123 114.98 131.123 116.34C130.163 117.66 128.883 118.7 127.283 119.46C125.683 120.22 123.903 120.6 121.943 120.6ZM123.803 112.32C125.763 112.32 127.343 111.68 128.543 110.4C129.743 109.08 130.343 107.42 130.343 105.42C130.343 104.06 130.063 102.86 129.503 101.82C128.983 100.78 128.223 99.98 127.223 99.42C126.263 98.82 125.143 98.52 123.863 98.52C122.583 98.52 121.443 98.82 120.443 99.42C119.483 99.98 118.703 100.78 118.103 101.82C117.543 102.86 117.263 104.06 117.263 105.42C117.263 106.74 117.543 107.92 118.103 108.96C118.663 110 119.443 110.82 120.443 111.42C121.443 112.02 122.563 112.32 123.803 112.32ZM129.983 120V112.14L131.363 105.06L129.983 97.98V90.84H138.983V120H129.983ZM162.247 120.6C160.287 120.6 158.487 120.2 156.847 119.4C155.207 118.56 153.867 117.46 152.827 116.1C151.787 114.7 151.187 113.14 151.027 111.42V99.12C151.187 97.4 151.787 95.88 152.827 94.56C153.867 93.2 155.207 92.14 156.847 91.38C158.487 90.62 160.287 90.24 162.247 90.24C165.007 90.24 167.447 90.9 169.567 92.22C171.727 93.54 173.407 95.34 174.607 97.62C175.847 99.9 176.467 102.5 176.467 105.42C176.467 108.34 175.847 110.94 174.607 113.22C173.407 115.5 171.727 117.3 169.567 118.62C167.447 119.94 165.007 120.6 162.247 120.6ZM160.627 112.32C161.907 112.32 163.027 112.02 163.987 111.42C164.987 110.82 165.767 110 166.327 108.96C166.887 107.92 167.167 106.74 167.167 105.42C167.167 104.06 166.887 102.86 166.327 101.82C165.767 100.78 164.987 99.98 163.987 99.42C163.027 98.82 161.907 98.52 160.627 98.52C159.347 98.52 158.207 98.82 157.207 99.42C156.207 99.98 155.427 100.78 154.867 101.82C154.347 102.86 154.087 104.06 154.087 105.42C154.087 106.78 154.367 107.98 154.927 109.02C155.487 110.06 156.247 110.88 157.207 111.48C158.207 112.04 159.347 112.32 160.627 112.32ZM145.447 120V76.44H154.627V97.98L153.127 105.06L154.507 112.14V120H145.447ZM195.171 120.66C192.171 120.66 189.451 120 187.011 118.68C184.611 117.32 182.711 115.48 181.311 113.16C179.911 110.84 179.211 108.24 179.211 105.36C179.211 102.48 179.911 99.9 181.311 97.62C182.711 95.34 184.611 93.54 187.011 92.22C189.411 90.86 192.131 90.18 195.171 90.18C198.211 90.18 200.931 90.84 203.331 92.16C205.731 93.48 207.631 95.3 209.031 97.62C210.431 99.9 211.131 102.48 211.131 105.36C211.131 108.24 210.431 110.84 209.031 113.16C207.631 115.48 205.731 117.32 203.331 118.68C200.931 120 198.211 120.66 195.171 120.66ZM195.171 112.32C196.491 112.32 197.651 112.04 198.651 111.48C199.651 110.88 200.411 110.06 200.931 109.02C201.491 107.94 201.771 106.72 201.771 105.36C201.771 104 201.491 102.82 200.931 101.82C200.371 100.78 199.591 99.98 198.591 99.42C197.631 98.82 196.491 98.52 195.171 98.52C193.891 98.52 192.751 98.82 191.751 99.42C190.751 99.98 189.971 100.78 189.411 101.82C188.851 102.86 188.571 104.06 188.571 105.42C188.571 106.74 188.851 107.94 189.411 109.02C189.971 110.06 190.751 110.88 191.751 111.48C192.751 112.04 193.891 112.32 195.171 112.32ZM215.701 120V90.84H224.881V120H215.701ZM224.881 103.98L221.041 100.98C221.801 97.58 223.081 94.94 224.881 93.06C226.681 91.18 229.181 90.24 232.381 90.24C233.781 90.24 235.001 90.46 236.041 90.9C237.121 91.3 238.061 91.94 238.861 92.82L233.401 99.72C233.001 99.28 232.501 98.94 231.901 98.7C231.301 98.46 230.621 98.34 229.861 98.34C228.341 98.34 227.121 98.82 226.201 99.78C225.321 100.7 224.881 102.1 224.881 103.98ZM252.666 120.6C249.986 120.6 247.586 119.94 245.466 118.62C243.386 117.3 241.726 115.5 240.486 113.22C239.286 110.94 238.686 108.34 238.686 105.42C238.686 102.5 239.286 99.9 240.486 97.62C241.726 95.34 243.386 93.54 245.466 92.22C247.586 90.9 249.986 90.24 252.666 90.24C254.626 90.24 256.386 90.62 257.946 91.38C259.546 92.14 260.846 93.2 261.846 94.56C262.846 95.88 263.406 97.4 263.526 99.12V111.72C263.406 113.44 262.846 114.98 261.846 116.34C260.886 117.66 259.606 118.7 258.006 119.46C256.406 120.22 254.626 120.6 252.666 120.6ZM254.526 112.32C256.486 112.32 258.066 111.68 259.266 110.4C260.466 109.08 261.066 107.42 261.066 105.42C261.066 104.06 260.786 102.86 260.226 101.82C259.706 100.78 258.946 99.98 257.946 99.42C256.986 98.82 255.866 98.52 254.586 98.52C253.306 98.52 252.166 98.82 251.166 99.42C250.206 99.98 249.426 100.78 248.826 101.82C248.266 102.86 247.986 104.06 247.986 105.42C247.986 106.74 248.266 107.92 248.826 108.96C249.386 110 250.166 110.82 251.166 111.42C252.166 112.02 253.286 112.32 254.526 112.32ZM260.706 120V112.14L262.086 105.06L260.706 97.98V90.84H269.706V120H260.706ZM280.31 120V78.78H289.49V120H280.31ZM273.71 98.64V90.84H296.09V98.64H273.71ZM300.135 120V90.84H309.315V120H300.135ZM304.755 86.82C303.315 86.82 302.115 86.34 301.155 85.38C300.235 84.38 299.775 83.18 299.775 81.78C299.775 80.34 300.235 79.14 301.155 78.18C302.115 77.22 303.315 76.74 304.755 76.74C306.195 76.74 307.375 77.22 308.295 78.18C309.215 79.14 309.675 80.34 309.675 81.78C309.675 83.18 309.215 84.38 308.295 85.38C307.375 86.34 306.195 86.82 304.755 86.82ZM324.959 120L312.599 90.84H322.499L330.899 115.14H326.579L334.979 90.84H344.699L332.339 119.94L324.959 120ZM361.585 120.66C358.425 120.66 355.605 120.02 353.125 118.74C350.685 117.42 348.765 115.6 347.365 113.28C345.965 110.96 345.265 108.34 345.265 105.42C345.265 102.5 345.945 99.9 347.305 97.62C348.705 95.3 350.585 93.48 352.945 92.16C355.305 90.84 357.965 90.18 360.925 90.18C363.805 90.18 366.345 90.8 368.545 92.04C370.745 93.28 372.465 95 373.705 97.2C374.985 99.4 375.625 101.92 375.625 104.76C375.625 105.28 375.585 105.84 375.505 106.44C375.465 107 375.365 107.66 375.205 108.42L350.065 108.48V102.18L371.305 102.12L367.345 104.76C367.305 103.08 367.045 101.7 366.565 100.62C366.085 99.5 365.365 98.66 364.405 98.1C363.485 97.5 362.345 97.2 360.985 97.2C359.545 97.2 358.285 97.54 357.205 98.22C356.165 98.86 355.345 99.78 354.745 100.98C354.185 102.18 353.905 103.64 353.905 105.36C353.905 107.08 354.205 108.56 354.805 109.8C355.445 111 356.325 111.94 357.445 112.62C358.605 113.26 359.965 113.58 361.525 113.58C362.965 113.58 364.265 113.34 365.425 112.86C366.585 112.34 367.605 111.58 368.485 110.58L373.525 115.62C372.085 117.3 370.345 118.56 368.305 119.4C366.265 120.24 364.025 120.66 361.585 120.66Z" fill="white"/>
<path d="M392.322 120V77.64H401.742V120H392.322ZM399.522 120V111.84H422.742V120H399.522ZM399.522 102.3V94.44H420.642V102.3H399.522ZM399.522 85.74V77.64H422.442V85.74H399.522ZM442.262 120.66C439.262 120.66 436.542 120 434.102 118.68C431.662 117.36 429.742 115.54 428.342 113.22C426.942 110.9 426.242 108.3 426.242 105.42C426.242 102.5 426.942 99.9 428.342 97.62C429.782 95.3 431.722 93.48 434.162 92.16C436.602 90.84 439.342 90.18 442.382 90.18C444.662 90.18 446.742 90.58 448.622 91.38C450.542 92.14 452.242 93.3 453.722 94.86L447.842 100.74C447.162 99.98 446.362 99.42 445.442 99.06C444.562 98.7 443.542 98.52 442.382 98.52C441.062 98.52 439.882 98.82 438.842 99.42C437.842 99.98 437.042 100.78 436.442 101.82C435.882 102.82 435.602 104 435.602 105.36C435.602 106.72 435.882 107.92 436.442 108.96C437.042 110 437.862 110.82 438.902 111.42C439.942 112.02 441.102 112.32 442.382 112.32C443.582 112.32 444.642 112.12 445.562 111.72C446.522 111.28 447.342 110.68 448.022 109.92L453.842 115.8C452.322 117.4 450.602 118.62 448.682 119.46C446.762 120.26 444.622 120.66 442.262 120.66ZM471.264 120.66C468.264 120.66 465.544 120 463.104 118.68C460.704 117.32 458.804 115.48 457.404 113.16C456.004 110.84 455.304 108.24 455.304 105.36C455.304 102.48 456.004 99.9 457.404 97.62C458.804 95.34 460.704 93.54 463.104 92.22C465.504 90.86 468.224 90.18 471.264 90.18C474.304 90.18 477.024 90.84 479.424 92.16C481.824 93.48 483.724 95.3 485.124 97.62C486.524 99.9 487.224 102.48 487.224 105.36C487.224 108.24 486.524 110.84 485.124 113.16C483.724 115.48 481.824 117.32 479.424 118.68C477.024 120 474.304 120.66 471.264 120.66ZM471.264 112.32C472.584 112.32 473.744 112.04 474.744 111.48C475.744 110.88 476.504 110.06 477.024 109.02C477.584 107.94 477.864 106.72 477.864 105.36C477.864 104 477.584 102.82 477.024 101.82C476.464 100.78 475.684 99.98 474.684 99.42C473.724 98.82 472.584 98.52 471.264 98.52C469.984 98.52 468.844 98.82 467.844 99.42C466.844 99.98 466.064 100.78 465.504 101.82C464.944 102.86 464.664 104.06 464.664 105.42C464.664 106.74 464.944 107.94 465.504 109.02C466.064 110.06 466.844 110.88 467.844 111.48C468.844 112.04 469.984 112.32 471.264 112.32ZM502.415 120.72C500.695 120.72 498.995 120.5 497.315 120.06C495.675 119.62 494.135 119 492.695 118.2C491.295 117.36 490.095 116.4 489.095 115.32L494.315 110.04C495.275 111.08 496.415 111.9 497.735 112.5C499.055 113.06 500.495 113.34 502.055 113.34C503.135 113.34 503.955 113.18 504.515 112.86C505.115 112.54 505.415 112.1 505.415 111.54C505.415 110.82 505.055 110.28 504.335 109.92C503.655 109.52 502.775 109.18 501.695 108.9C500.615 108.58 499.475 108.24 498.275 107.88C497.075 107.52 495.935 107.02 494.855 106.38C493.775 105.74 492.895 104.86 492.215 103.74C491.535 102.58 491.195 101.12 491.195 99.36C491.195 97.48 491.675 95.86 492.635 94.5C493.595 93.1 494.955 92 496.715 91.2C498.475 90.4 500.535 90 502.895 90C505.375 90 507.655 90.44 509.735 91.32C511.855 92.16 513.575 93.42 514.895 95.1L509.675 100.38C508.755 99.3 507.715 98.54 506.555 98.1C505.435 97.66 504.335 97.44 503.255 97.44C502.215 97.44 501.435 97.6 500.915 97.92C500.395 98.2 500.135 98.62 500.135 99.18C500.135 99.78 500.475 100.26 501.155 100.62C501.835 100.98 502.715 101.3 503.795 101.58C504.875 101.86 506.015 102.2 507.215 102.6C508.415 103 509.555 103.54 510.635 104.22C511.715 104.9 512.595 105.82 513.275 106.98C513.955 108.1 514.295 109.58 514.295 111.42C514.295 114.26 513.215 116.52 511.055 118.2C508.935 119.88 506.055 120.72 502.415 120.72ZM528.275 120.12L516.275 90.84H526.175L533.795 114.06H530.135L537.935 90.84H547.835L535.355 120.12H528.275ZM520.775 132.3L529.535 113.4L535.355 120.12L530.195 132.3H520.775ZM560.891 120.72C559.171 120.72 557.471 120.5 555.791 120.06C554.151 119.62 552.611 119 551.171 118.2C549.771 117.36 548.571 116.4 547.571 115.32L552.791 110.04C553.751 111.08 554.891 111.9 556.211 112.5C557.531 113.06 558.971 113.34 560.531 113.34C561.611 113.34 562.431 113.18 562.991 112.86C563.591 112.54 563.891 112.1 563.891 111.54C563.891 110.82 563.531 110.28 562.811 109.92C562.131 109.52 561.251 109.18 560.171 108.9C559.091 108.58 557.951 108.24 556.751 107.88C555.551 107.52 554.411 107.02 553.331 106.38C552.251 105.74 551.371 104.86 550.691 103.74C550.011 102.58 549.671 101.12 549.671 99.36C549.671 97.48 550.151 95.86 551.111 94.5C552.071 93.1 553.431 92 555.191 91.2C556.951 90.4 559.011 90 561.371 90C563.851 90 566.131 90.44 568.211 91.32C570.331 92.16 572.051 93.42 573.371 95.1L568.151 100.38C567.231 99.3 566.191 98.54 565.031 98.1C563.911 97.66 562.811 97.44 561.731 97.44C560.691 97.44 559.911 97.6 559.391 97.92C558.871 98.2 558.611 98.62 558.611 99.18C558.611 99.78 558.951 100.26 559.631 100.62C560.311 100.98 561.191 101.3 562.271 101.58C563.351 101.86 564.491 102.2 565.691 102.6C566.891 103 568.031 103.54 569.111 104.22C570.191 104.9 571.071 105.82 571.751 106.98C572.431 108.1 572.771 109.58 572.771 111.42C572.771 114.26 571.691 116.52 569.531 118.2C567.411 119.88 564.531 120.72 560.891 120.72ZM581.892 120V78.78H591.072V120H581.892ZM575.292 98.64V90.84H597.672V98.64H575.292ZM615.531 120.66C612.371 120.66 609.551 120.02 607.071 118.74C604.631 117.42 602.711 115.6 601.311 113.28C599.911 110.96 599.211 108.34 599.211 105.42C599.211 102.5 599.891 99.9 601.251 97.62C602.651 95.3 604.531 93.48 606.891 92.16C609.251 90.84 611.911 90.18 614.871 90.18C617.751 90.18 620.291 90.8 622.491 92.04C624.691 93.28 626.411 95 627.651 97.2C628.931 99.4 629.571 101.92 629.571 104.76C629.571 105.28 629.531 105.84 629.451 106.44C629.411 107 629.311 107.66 629.151 108.42L604.011 108.48V102.18L625.251 102.12L621.291 104.76C621.251 103.08 620.991 101.7 620.511 100.62C620.031 99.5 619.311 98.66 618.351 98.1C617.431 97.5 616.291 97.2 614.931 97.2C613.491 97.2 612.231 97.54 611.151 98.22C610.111 98.86 609.291 99.78 608.691 100.98C608.131 102.18 607.851 103.64 607.851 105.36C607.851 107.08 608.151 108.56 608.751 109.8C609.391 111 610.271 111.94 611.391 112.62C612.551 113.26 613.911 113.58 615.471 113.58C616.911 113.58 618.211 113.34 619.371 112.86C620.531 112.34 621.551 111.58 622.431 110.58L627.471 115.62C626.031 117.3 624.291 118.56 622.251 119.4C620.211 120.24 617.971 120.66 615.531 120.66ZM634.002 120V90.84H643.182V120H634.002ZM652.662 120V102.96C652.662 101.48 652.202 100.34 651.282 99.54C650.402 98.7 649.302 98.28 647.982 98.28C647.062 98.28 646.242 98.48 645.522 98.88C644.802 99.24 644.222 99.76 643.782 100.44C643.382 101.12 643.182 101.96 643.182 102.96L639.642 101.4C639.642 99.08 640.142 97.1 641.142 95.46C642.142 93.78 643.502 92.5 645.222 91.62C646.942 90.7 648.882 90.24 651.042 90.24C653.082 90.24 654.902 90.7 656.502 91.62C658.142 92.54 659.442 93.82 660.402 95.46C661.362 97.1 661.842 99.06 661.842 101.34V120H652.662ZM671.322 120V102.96C671.322 101.48 670.862 100.34 669.942 99.54C669.062 98.7 667.962 98.28 666.642 98.28C665.722 98.28 664.902 98.48 664.182 98.88C663.462 99.24 662.882 99.76 662.442 100.44C662.042 101.12 661.842 101.96 661.842 102.96L656.562 102.24C656.642 99.76 657.222 97.64 658.302 95.88C659.422 94.08 660.882 92.7 662.682 91.74C664.522 90.74 666.582 90.24 668.862 90.24C671.102 90.24 673.082 90.72 674.802 91.68C676.562 92.6 677.942 93.94 678.942 95.7C679.982 97.42 680.502 99.5 680.502 101.94V120H671.322Z" fill="white"/>
<path d="M392.322 120V77.64H401.742V120H392.322ZM399.522 120V111.84H422.742V120H399.522ZM399.522 102.3V94.44H420.642V102.3H399.522ZM399.522 85.74V77.64H422.442V85.74H399.522ZM442.262 120.66C439.262 120.66 436.542 120 434.102 118.68C431.662 117.36 429.742 115.54 428.342 113.22C426.942 110.9 426.242 108.3 426.242 105.42C426.242 102.5 426.942 99.9 428.342 97.62C429.782 95.3 431.722 93.48 434.162 92.16C436.602 90.84 439.342 90.18 442.382 90.18C444.662 90.18 446.742 90.58 448.622 91.38C450.542 92.14 452.242 93.3 453.722 94.86L447.842 100.74C447.162 99.98 446.362 99.42 445.442 99.06C444.562 98.7 443.542 98.52 442.382 98.52C441.062 98.52 439.882 98.82 438.842 99.42C437.842 99.98 437.042 100.78 436.442 101.82C435.882 102.82 435.602 104 435.602 105.36C435.602 106.72 435.882 107.92 436.442 108.96C437.042 110 437.862 110.82 438.902 111.42C439.942 112.02 441.102 112.32 442.382 112.32C443.582 112.32 444.642 112.12 445.562 111.72C446.522 111.28 447.342 110.68 448.022 109.92L453.842 115.8C452.322 117.4 450.602 118.62 448.682 119.46C446.762 120.26 444.622 120.66 442.262 120.66ZM471.264 120.66C468.264 120.66 465.544 120 463.104 118.68C460.704 117.32 458.804 115.48 457.404 113.16C456.004 110.84 455.304 108.24 455.304 105.36C455.304 102.48 456.004 99.9 457.404 97.62C458.804 95.34 460.704 93.54 463.104 92.22C465.504 90.86 468.224 90.18 471.264 90.18C474.304 90.18 477.024 90.84 479.424 92.16C481.824 93.48 483.724 95.3 485.124 97.62C486.524 99.9 487.224 102.48 487.224 105.36C487.224 108.24 486.524 110.84 485.124 113.16C483.724 115.48 481.824 117.32 479.424 118.68C477.024 120 474.304 120.66 471.264 120.66ZM471.264 112.32C472.584 112.32 473.744 112.04 474.744 111.48C475.744 110.88 476.504 110.06 477.024 109.02C477.584 107.94 477.864 106.72 477.864 105.36C477.864 104 477.584 102.82 477.024 101.82C476.464 100.78 475.684 99.98 474.684 99.42C473.724 98.82 472.584 98.52 471.264 98.52C469.984 98.52 468.844 98.82 467.844 99.42C466.844 99.98 466.064 100.78 465.504 101.82C464.944 102.86 464.664 104.06 464.664 105.42C464.664 106.74 464.944 107.94 465.504 109.02C466.064 110.06 466.844 110.88 467.844 111.48C468.844 112.04 469.984 112.32 471.264 112.32ZM502.415 120.72C500.695 120.72 498.995 120.5 497.315 120.06C495.675 119.62 494.135 119 492.695 118.2C491.295 117.36 490.095 116.4 489.095 115.32L494.315 110.04C495.275 111.08 496.415 111.9 497.735 112.5C499.055 113.06 500.495 113.34 502.055 113.34C503.135 113.34 503.955 113.18 504.515 112.86C505.115 112.54 505.415 112.1 505.415 111.54C505.415 110.82 505.055 110.28 504.335 109.92C503.655 109.52 502.775 109.18 501.695 108.9C500.615 108.58 499.475 108.24 498.275 107.88C497.075 107.52 495.935 107.02 494.855 106.38C493.775 105.74 492.895 104.86 492.215 103.74C491.535 102.58 491.195 101.12 491.195 99.36C491.195 97.48 491.675 95.86 492.635 94.5C493.595 93.1 494.955 92 496.715 91.2C498.475 90.4 500.535 90 502.895 90C505.375 90 507.655 90.44 509.735 91.32C511.855 92.16 513.575 93.42 514.895 95.1L509.675 100.38C508.755 99.3 507.715 98.54 506.555 98.1C505.435 97.66 504.335 97.44 503.255 97.44C502.215 97.44 501.435 97.6 500.915 97.92C500.395 98.2 500.135 98.62 500.135 99.18C500.135 99.78 500.475 100.26 501.155 100.62C501.835 100.98 502.715 101.3 503.795 101.58C504.875 101.86 506.015 102.2 507.215 102.6C508.415 103 509.555 103.54 510.635 104.22C511.715 104.9 512.595 105.82 513.275 106.98C513.955 108.1 514.295 109.58 514.295 111.42C514.295 114.26 513.215 116.52 511.055 118.2C508.935 119.88 506.055 120.72 502.415 120.72ZM528.275 120.12L516.275 90.84H526.175L533.795 114.06H530.135L537.935 90.84H547.835L535.355 120.12H528.275ZM520.775 132.3L529.535 113.4L535.355 120.12L530.195 132.3H520.775ZM560.891 120.72C559.171 120.72 557.471 120.5 555.791 120.06C554.151 119.62 552.611 119 551.171 118.2C549.771 117.36 548.571 116.4 547.571 115.32L552.791 110.04C553.751 111.08 554.891 111.9 556.211 112.5C557.531 113.06 558.971 113.34 560.531 113.34C561.611 113.34 562.431 113.18 562.991 112.86C563.591 112.54 563.891 112.1 563.891 111.54C563.891 110.82 563.531 110.28 562.811 109.92C562.131 109.52 561.251 109.18 560.171 108.9C559.091 108.58 557.951 108.24 556.751 107.88C555.551 107.52 554.411 107.02 553.331 106.38C552.251 105.74 551.371 104.86 550.691 103.74C550.011 102.58 549.671 101.12 549.671 99.36C549.671 97.48 550.151 95.86 551.111 94.5C552.071 93.1 553.431 92 555.191 91.2C556.951 90.4 559.011 90 561.371 90C563.851 90 566.131 90.44 568.211 91.32C570.331 92.16 572.051 93.42 573.371 95.1L568.151 100.38C567.231 99.3 566.191 98.54 565.031 98.1C563.911 97.66 562.811 97.44 561.731 97.44C560.691 97.44 559.911 97.6 559.391 97.92C558.871 98.2 558.611 98.62 558.611 99.18C558.611 99.78 558.951 100.26 559.631 100.62C560.311 100.98 561.191 101.3 562.271 101.58C563.351 101.86 564.491 102.2 565.691 102.6C566.891 103 568.031 103.54 569.111 104.22C570.191 104.9 571.071 105.82 571.751 106.98C572.431 108.1 572.771 109.58 572.771 111.42C572.771 114.26 571.691 116.52 569.531 118.2C567.411 119.88 564.531 120.72 560.891 120.72ZM581.892 120V78.78H591.072V120H581.892ZM575.292 98.64V90.84H597.672V98.64H575.292ZM615.531 120.66C612.371 120.66 609.551 120.02 607.071 118.74C604.631 117.42 602.711 115.6 601.311 113.28C599.911 110.96 599.211 108.34 599.211 105.42C599.211 102.5 599.891 99.9 601.251 97.62C602.651 95.3 604.531 93.48 606.891 92.16C609.251 90.84 611.911 90.18 614.871 90.18C617.751 90.18 620.291 90.8 622.491 92.04C624.691 93.28 626.411 95 627.651 97.2C628.931 99.4 629.571 101.92 629.571 104.76C629.571 105.28 629.531 105.84 629.451 106.44C629.411 107 629.311 107.66 629.151 108.42L604.011 108.48V102.18L625.251 102.12L621.291 104.76C621.251 103.08 620.991 101.7 620.511 100.62C620.031 99.5 619.311 98.66 618.351 98.1C617.431 97.5 616.291 97.2 614.931 97.2C613.491 97.2 612.231 97.54 611.151 98.22C610.111 98.86 609.291 99.78 608.691 100.98C608.131 102.18 607.851 103.64 607.851 105.36C607.851 107.08 608.151 108.56 608.751 109.8C609.391 111 610.271 111.94 611.391 112.62C612.551 113.26 613.911 113.58 615.471 113.58C616.911 113.58 618.211 113.34 619.371 112.86C620.531 112.34 621.551 111.58 622.431 110.58L627.471 115.62C626.031 117.3 624.291 118.56 622.251 119.4C620.211 120.24 617.971 120.66 615.531 120.66ZM634.002 120V90.84H643.182V120H634.002ZM652.662 120V102.96C652.662 101.48 652.202 100.34 651.282 99.54C650.402 98.7 649.302 98.28 647.982 98.28C647.062 98.28 646.242 98.48 645.522 98.88C644.802 99.24 644.222 99.76 643.782 100.44C643.382 101.12 643.182 101.96 643.182 102.96L639.642 101.4C639.642 99.08 640.142 97.1 641.142 95.46C642.142 93.78 643.502 92.5 645.222 91.62C646.942 90.7 648.882 90.24 651.042 90.24C653.082 90.24 654.902 90.7 656.502 91.62C658.142 92.54 659.442 93.82 660.402 95.46C661.362 97.1 661.842 99.06 661.842 101.34V120H652.662ZM671.322 120V102.96C671.322 101.48 670.862 100.34 669.942 99.54C669.062 98.7 667.962 98.28 666.642 98.28C665.722 98.28 664.902 98.48 664.182 98.88C663.462 99.24 662.882 99.76 662.442 100.44C662.042 101.12 661.842 101.96 661.842 102.96L656.562 102.24C656.642 99.76 657.222 97.64 658.302 95.88C659.422 94.08 660.882 92.7 662.682 91.74C664.522 90.74 666.582 90.24 668.862 90.24C671.102 90.24 673.082 90.72 674.802 91.68C676.562 92.6 677.942 93.94 678.942 95.7C679.982 97.42 680.502 99.5 680.502 101.94V120H671.322Z" fill="url(#paint0_linear_110_963)"/>
<defs>
<linearGradient id="paint0_linear_110_963" x1="0" y1="60" x2="684" y2="60" gradientUnits="userSpaceOnUse">
<stop stop-color="#FF3934"/>
<stop offset="1" stop-color="#FEBC18"/>
</linearGradient>
</defs>
</svg>
