<?xml version="1.0" encoding="UTF-8"?>
<!DOCTYPE svg PUBLIC "-//W3C//DTD SVG 1.1//EN" "http://www.w3.org/Graphics/SVG/1.1/DTD/svg11.dtd">
<!-- Creator: CorelDRAW 2021 (64-Bit) -->
<svg xmlns="http://www.w3.org/2000/svg" xml:space="preserve" width="42.3334mm" height="42.3332mm" version="1.1" style="shape-rendering:geometricPrecision; text-rendering:geometricPrecision; image-rendering:optimizeQuality; fill-rule:evenodd; clip-rule:evenodd"
viewBox="0 0 4233.34 4233.32"
 xmlns:xlink="http://www.w3.org/1999/xlink"
 xmlns:xodm="http://www.corel.com/coreldraw/odm/2003">
 <defs>
  <style type="text/css">
   <![CDATA[
    .fil0 {fill:none}
    .fil2 {fill:#1F1C2B}
    .fil1 {fill:#E85F14;fill-rule:nonzero}
   ]]>
  </style>
 </defs>
 <g id="Layer_x0020_1">
  <metadata id="CorelCorpID_0Corel-Layer"/>
  <g id="_2058508452048">
   <rect class="fil0" x="0.01" y="-0" width="4233.33" height="4233.32"/>
   <g id="Layer_x0020_1_0">
    <g id="_1965607027520">
     <path id="Vector" class="fil1" d="M2110.61 4096.93c1125.6,0 1969.75,-811.55 1969.75,-1967.22 0,-1155.64 -844.15,-1967.22 -1969.75,-1967.22 -1125.6,0 -1964.65,811.58 -1964.65,1967.22 0,1155.67 839.05,1967.22 1964.65,1967.22z"/>
     <path id="Vector_2" class="fil2" d="M1077.43 1094l0.04 0c58.1,-58.14 153.23,-58.14 211.34,0l411.65 411.61c58.14,58.14 58.14,153.23 0,211.38l0 0c-58.15,58.14 -153.24,58.14 -211.39,0.03l-411.64 -411.64c-58.11,-58.14 -58.11,-153.24 0,-211.38z"/>
     <path id="Vector_3" class="fil2" d="M3148.89 1093.96l0 0c58.18,58.14 58.14,153.24 0,211.38l-411.61 411.65c-58.14,58.14 -153.24,58.14 -211.38,0l0 0c-58.14,-58.15 -58.14,-153.28 0,-211.38l411.65 -411.65c58.1,-58.14 153.23,-58.14 211.34,0z"/>
     <path id="Vector_4" class="fil2" d="M3148.93 3165.42l-0.04 0c-58.11,58.14 -153.2,58.14 -211.34,0l-411.65 -411.61c-58.14,-58.14 -58.14,-153.24 0,-211.38l0 0c58.14,-58.14 153.28,-58.14 211.38,-0.04l411.65 411.65c58.1,58.14 58.1,153.27 0,211.38z"/>
     <path id="Vector_5" class="fil2" d="M1077.47 3165.46l-0.04 -0.04c-58.14,-58.11 -58.11,-153.24 0,-211.38l411.64 -411.61c58.15,-58.14 153.24,-58.14 211.39,0l0 0c58.14,58.14 58.14,153.24 0,211.38l-411.65 411.65c-58.11,58.1 -153.24,58.1 -211.34,0z"/>
     <path id="Vector_6" class="fil2" d="M1524.32 1540.88c325.17,-325.21 852.47,-325.21 1177.64,0 325.22,325.22 325.22,852.48 0,1177.65 -325.17,325.21 -852.47,325.21 -1177.64,0 -325.21,-325.17 -325.21,-852.43 0,-1177.65zm211.71 211.72c208.3,-208.26 545.92,-208.26 754.22,0 208.26,208.29 208.26,545.92 0,754.22 -208.3,208.25 -545.92,208.25 -754.22,0 -208.26,-208.3 -208.26,-545.93 0,-754.22z"/>
     <path id="Vector_7" class="fil2" d="M1569.23 567.55c31.67,-11.04 66.24,5.69 77.28,37.37 11.04,31.67 -5.68,66.24 -37.36,77.28 -31.63,11.01 -66.24,-5.68 -77.29,-37.36 -11,-31.67 5.69,-66.28 37.37,-77.29z"/>
     <path id="Vector_8" class="fil2" d="M2833.16 640.46c30.18,14.61 42.82,50.89 28.21,81.08 -14.57,30.18 -50.89,42.82 -81.08,28.21 -30.15,-14.57 -42.79,-50.85 -28.21,-81.04 14.61,-30.19 50.89,-42.83 81.08,-28.25z"/>
     <path id="Vector_9" class="fil2" d="M3675.29 1585.76c11.05,31.67 -5.72,66.28 -37.36,77.28 -31.67,11.01 -66.24,-5.68 -77.29,-37.36 -11.04,-31.67 5.69,-66.28 37.37,-77.29 31.67,-11.04 66.28,5.69 77.28,37.37z"/>
     <path id="Vector_10" class="fil2" d="M3602.39 2849.69c-14.61,30.15 -50.89,42.79 -81.04,28.21 -30.19,-14.61 -42.83,-50.89 -28.25,-81.08 14.61,-30.15 50.89,-42.79 81.08,-28.21 30.18,14.61 42.82,50.89 28.21,81.08z"/>
     <path id="Vector_11" class="fil2" d="M2657.13 3691.86c-31.67,11.04 -66.28,-5.72 -77.29,-37.36 -11.04,-31.67 5.69,-66.28 37.36,-77.29 31.64,-11 66.25,5.69 77.25,37.36 11.05,31.68 -5.65,66.29 -37.32,77.29z"/>
     <path id="Vector_12" class="fil2" d="M1393.2 3618.96c-30.19,-14.61 -42.83,-50.89 -28.25,-81.08 14.61,-30.19 50.89,-42.83 81.08,-28.22 30.18,14.58 42.82,50.86 28.21,81.05 -14.57,30.18 -50.85,42.82 -81.04,28.25z"/>
     <path id="Vector_13" class="fil2" d="M550.99 2673.66c-11.01,-31.64 5.72,-66.25 37.36,-77.29 31.67,-11 66.28,5.69 77.29,37.36 11.04,31.68 -5.69,66.25 -37.36,77.29 -31.64,11.01 -66.25,-5.69 -77.29,-37.36z"/>
     <path id="Vector_14" class="fil2" d="M623.89 1409.73c14.61,-30.19 50.89,-42.83 81.08,-28.22 30.19,14.58 42.82,50.9 28.21,81.05 -14.57,30.18 -50.89,42.82 -81.08,28.25 -30.18,-14.61 -42.78,-50.89 -28.21,-81.08z"/>
    </g>
   </g>
  </g>
 </g>
</svg>
