<svg width="52" height="52" viewBox="0 0 52 52" fill="none" xmlns="http://www.w3.org/2000/svg">
<rect width="52" height="52" rx="13" fill="url(#paint0_linear_110_3635)"/>
<rect width="52" height="52" rx="13" fill="url(#paint1_linear_110_3635)"/>
<path fill-rule="evenodd" clip-rule="evenodd" d="M14.4749 14H18.8102C18.936 14.0004 19.0565 14.0509 19.1454 14.1405C19.2343 14.2301 19.2844 14.3515 19.2848 14.4783V18.8473C19.285 18.8699 19.2834 18.8925 19.2801 18.9149L21.4872 21.1396C21.5147 21.1661 21.5367 21.1979 21.5519 21.2331C21.5671 21.2683 21.5751 21.3062 21.5756 21.3446C21.5761 21.383 21.5689 21.4211 21.5545 21.4567C21.5401 21.4922 21.5188 21.5245 21.4919 21.5517C21.465 21.5788 21.4329 21.6003 21.3976 21.6148C21.3624 21.6293 21.3246 21.6365 21.2864 21.6361C21.2484 21.6356 21.2107 21.6275 21.1758 21.6122C21.1408 21.5969 21.1093 21.5747 21.083 21.5469L18.8759 19.3202C18.8537 19.3233 18.8313 19.3249 18.8089 19.3249H14.4749C14.3492 19.3246 14.2288 19.2742 14.1399 19.1847C14.0511 19.0952 14.0009 18.9739 14.0003 18.8473V14.4783C14.0007 14.3515 14.0508 14.2301 14.1397 14.1405C14.2286 14.0509 14.3491 14.0004 14.4749 14ZM38 27.4393V24.4668C37.9998 24.3806 37.9658 24.2979 37.9053 24.237C37.8448 24.176 37.7628 24.1416 37.6773 24.1415H34.7283C34.6427 24.1416 34.5607 24.176 34.5002 24.237C34.4398 24.2979 34.4057 24.3806 34.4056 24.4668V25.6653H32.8459C32.8076 25.6639 32.7693 25.6704 32.7335 25.6843C32.6977 25.6981 32.6651 25.7192 32.6375 25.746C32.6099 25.7729 32.588 25.8051 32.573 25.8407C32.558 25.8763 32.5503 25.9145 32.5503 25.9532C32.5503 25.9919 32.558 26.0302 32.573 26.0658C32.588 26.1014 32.6099 26.1336 32.6375 26.1604C32.6651 26.1873 32.6977 26.2083 32.7335 26.2222C32.7693 26.236 32.8076 26.2425 32.8459 26.2412H34.4035V27.4397C34.4037 27.5259 34.4378 27.6085 34.4982 27.6695C34.5587 27.7304 34.6407 27.7648 34.7262 27.765H37.6753C37.7608 27.7648 37.8428 27.7304 37.9033 27.6695C37.9638 27.6085 37.9978 27.5259 37.998 27.4397L38 27.4393ZM37.5242 38H33.1884C33.0627 37.9996 32.9422 37.9491 32.8533 37.8595C32.7643 37.7699 32.7142 37.6485 32.7139 37.5217V33.1524C32.7137 33.1298 32.7153 33.1072 32.7186 33.0848L30.5112 30.8615C30.4836 30.8349 30.4616 30.8032 30.4464 30.768C30.4312 30.7327 30.4232 30.6948 30.4227 30.6564C30.4223 30.618 30.4295 30.5799 30.4438 30.5443C30.4582 30.5088 30.4795 30.4765 30.5064 30.4493C30.5333 30.4222 30.5654 30.4007 30.6007 30.3862C30.6359 30.3717 30.6738 30.3645 30.7119 30.365C30.75 30.3654 30.7876 30.3735 30.8225 30.3888C30.8575 30.4042 30.889 30.4263 30.9153 30.4541L33.1224 32.6788C33.1446 32.6757 33.167 32.6741 33.1894 32.6741H37.5242C37.6499 32.6744 37.7703 32.7249 37.8593 32.8146C37.9482 32.9042 37.9983 33.0256 37.9986 33.1524V37.5224C37.9981 37.649 37.948 37.7703 37.859 37.8598C37.7701 37.9492 37.6498 37.9996 37.5242 38ZM24.5712 38H27.5202C27.6058 37.9998 27.6878 37.9655 27.7483 37.9045C27.8087 37.8436 27.8428 37.7609 27.843 37.6747V34.7022C27.8428 34.616 27.8087 34.5333 27.7483 34.4724C27.6878 34.4114 27.6058 34.377 27.5202 34.3769H26.3316V32.8068C26.3329 32.7682 26.3265 32.7297 26.3127 32.6936C26.2989 32.6575 26.2781 32.6245 26.2515 32.5968C26.2248 32.5689 26.1929 32.5468 26.1576 32.5317C26.1223 32.5166 26.0843 32.5088 26.0459 32.5088C26.0075 32.5088 25.9696 32.5166 25.9343 32.5317C25.899 32.5468 25.867 32.5689 25.8403 32.5968C25.8137 32.6245 25.7929 32.6575 25.7791 32.6936C25.7653 32.7297 25.7589 32.7682 25.7602 32.8068V34.3769H24.5709C24.4853 34.377 24.4034 34.4114 24.3429 34.4724C24.2824 34.5333 24.2483 34.616 24.2482 34.7022V37.6747C24.2483 37.7609 24.2824 37.8436 24.3429 37.9045C24.4034 37.9655 24.4857 37.9998 24.5712 38ZM14.4745 38H18.8099C18.9356 37.9997 19.0561 37.9494 19.145 37.8599C19.234 37.7704 19.2843 37.6491 19.2848 37.5224V33.1524C19.285 33.1298 19.2834 33.1072 19.2801 33.0848L21.4872 30.8601C21.5147 30.8336 21.5367 30.8018 21.5519 30.7666C21.5671 30.7314 21.5751 30.6935 21.5756 30.6551C21.5761 30.6167 21.5689 30.5786 21.5545 30.543C21.5401 30.5075 21.5188 30.4751 21.4919 30.448C21.465 30.4208 21.4329 30.3994 21.3976 30.3849C21.3624 30.3704 21.3246 30.3632 21.2864 30.3636C21.2484 30.3641 21.2107 30.3722 21.1758 30.3875C21.1408 30.4028 21.1093 30.425 21.083 30.4528L18.8759 32.6774C18.8537 32.6743 18.8313 32.6728 18.8089 32.6727H14.4745C14.3485 32.6731 14.2279 32.7238 14.1389 32.8137C14.05 32.9036 14 33.0254 14 33.1524V37.5224C14.0005 37.649 14.0507 37.7703 14.1396 37.8598C14.2285 37.9492 14.3489 37.9996 14.4745 38ZM37.5242 14H33.1884C33.0627 14.0004 32.9422 14.0509 32.8533 14.1405C32.7643 14.2301 32.7142 14.3515 32.7139 14.4783V18.8473C32.7137 18.8699 32.7153 18.8925 32.7186 18.9149L30.5112 21.1392C30.4836 21.1657 30.4616 21.1975 30.4464 21.2327C30.4312 21.268 30.4232 21.3059 30.4227 21.3443C30.4223 21.3827 30.4295 21.4207 30.4438 21.4563C30.4582 21.4919 30.4795 21.5242 30.5064 21.5513C30.5333 21.5785 30.5654 21.6 30.6007 21.6145C30.6359 21.629 30.6738 21.6362 30.7119 21.6358C30.75 21.6353 30.7876 21.6272 30.8225 21.6119C30.8575 21.5965 30.889 21.5743 30.9153 21.5466L33.123 19.3202C33.1452 19.3233 33.1677 19.3249 33.1901 19.3249H37.5242C37.6497 19.3245 37.77 19.274 37.8588 19.1846C37.9476 19.0951 37.9978 18.9739 37.9983 18.8473V14.4783C37.998 14.3516 37.9479 14.2302 37.8591 14.1406C37.7702 14.051 37.6498 14.0004 37.5242 14ZM14.0942 27.4393V24.4668C14.0943 24.3806 14.1284 24.2979 14.1889 24.237C14.2494 24.176 14.3313 24.1416 14.4169 24.1415H17.3659C17.4514 24.1416 17.5334 24.176 17.5939 24.237C17.6544 24.2979 17.6884 24.3806 17.6886 24.4668V25.6653H19.2462C19.2846 25.6639 19.3228 25.6704 19.3586 25.6843C19.3944 25.6981 19.4271 25.7192 19.4547 25.746C19.4823 25.7729 19.5042 25.8051 19.5192 25.8407C19.5342 25.8763 19.5419 25.9145 19.5419 25.9532C19.5419 25.9919 19.5342 26.0302 19.5192 26.0658C19.5042 26.1014 19.4823 26.1336 19.4547 26.1604C19.4271 26.1873 19.3944 26.2083 19.3586 26.2222C19.3228 26.236 19.2846 26.2425 19.2462 26.2412H17.689V27.4397C17.6888 27.5259 17.6547 27.6085 17.5942 27.6695C17.5338 27.7304 17.4518 27.7648 17.3662 27.765H14.4172C14.3317 27.7648 14.2497 27.7304 14.1892 27.6695C14.1287 27.6085 14.0947 27.5259 14.0945 27.4397L14.0942 27.4393ZM24.5716 14H27.5206C27.6061 14.0002 27.6881 14.0345 27.7486 14.0955C27.8091 14.1564 27.8431 14.2391 27.8433 14.3253V17.2978C27.8431 17.3841 27.8091 17.4667 27.7486 17.5277C27.6881 17.5886 27.6061 17.623 27.5206 17.6231H26.3319V19.1932C26.3333 19.2318 26.3268 19.2703 26.3131 19.3064C26.2993 19.3425 26.2785 19.3755 26.2518 19.4033C26.2252 19.4311 26.1932 19.4532 26.1579 19.4683C26.1226 19.4834 26.0846 19.4912 26.0463 19.4912C26.0079 19.4912 25.9699 19.4834 25.9346 19.4683C25.8993 19.4532 25.8673 19.4311 25.8407 19.4033C25.814 19.3755 25.7932 19.3425 25.7794 19.3064C25.7656 19.2703 25.7592 19.2318 25.7606 19.1932V17.6235H24.5712C24.4857 17.6233 24.4037 17.589 24.3432 17.528C24.2827 17.4671 24.2487 17.3844 24.2485 17.2982V14.3256C24.2487 14.2394 24.2827 14.1568 24.3432 14.0958C24.4037 14.0348 24.4857 14.0005 24.5712 14.0004L24.5716 14Z" fill="white"/>
<path fill-rule="evenodd" clip-rule="evenodd" d="M26.4353 20.4521L30.574 22.8609C30.6037 22.8782 30.6323 22.8972 30.6598 22.9179L26.0445 25.6037L21.4293 22.9179C21.4569 22.8974 21.4855 22.8783 21.5151 22.8609L25.6538 20.4521C25.772 20.3812 25.907 20.3438 26.0445 20.3438C26.1821 20.3438 26.3171 20.3812 26.4353 20.4521ZM30.9594 23.4395C30.9635 23.4738 30.9657 23.5083 30.9657 23.5428V28.3601C30.9676 28.4986 30.9324 28.6352 30.8636 28.7552C30.7949 28.8753 30.6953 28.9744 30.5753 29.0421L26.4366 31.4508C26.4071 31.4682 26.3764 31.4837 26.3448 31.4972V26.1263L30.9601 23.4405L30.9594 23.4395ZM25.746 31.4964C25.7145 31.4828 25.6839 31.4674 25.6541 31.4502L21.5155 29.0414C21.3954 28.9737 21.2958 28.8746 21.2271 28.7546C21.1584 28.6345 21.1231 28.498 21.1251 28.3594V23.5425C21.1251 23.508 21.1273 23.4735 21.1314 23.4391L25.7467 26.1246V31.4954L25.746 31.4964Z" fill="white"/>
<defs>
<linearGradient id="paint0_linear_110_3635" x1="-4.875" y1="-12.4583" x2="52" y2="62.8333" gradientUnits="userSpaceOnUse">
<stop offset="0.0550171" stop-color="#0A0FDB"/>
<stop offset="1" stop-color="#8D00A6"/>
</linearGradient>
<linearGradient id="paint1_linear_110_3635" x1="25.9144" y1="-18.8627" x2="25.9144" y2="70.353" gradientUnits="userSpaceOnUse">
<stop stop-color="#F88311"/>
<stop offset="1" stop-color="#F83811"/>
</linearGradient>
</defs>
</svg>
