<svg width="542" height="638" viewBox="0 0 542 638" fill="none" xmlns="http://www.w3.org/2000/svg">
<path d="M225.752 239.182L271.002 212.58L316.248 239.182L361.5 265.789V372.214L316.248 398.817L271.002 425.42L225.752 398.817L180.5 372.214V265.785L225.752 239.182L225.499 238.751L225.752 239.182Z" stroke="white"/>
<path opacity="0.3" d="M203.252 199.433L271.003 159.58L338.748 199.433L406.5 239.29V398.715L338.748 438.566L339.002 438.997L338.748 438.566L271.003 478.42L203.252 438.566L203.033 438.939L203.252 438.566L135.5 398.715V239.285L203.252 199.433L203.012 199.025L203.252 199.433Z" stroke="white"/>
<path opacity="0.3" d="M214.752 219.683L271.002 186.58L327.248 219.683L383.5 252.789V385.215L327.248 418.317L327.501 418.748L327.248 418.317L271.002 451.42L214.752 418.317L214.499 418.748L214.752 418.317L158.5 385.215V252.785L214.752 219.683Z" stroke="#F85E11"/>
<path opacity="0.2" d="M180.251 158.934L271.004 105.58L361.749 158.934L452.5 212.292V425.715L361.749 479.065L271.004 532.42L180.251 479.065L89.5 425.715V212.284L180.251 158.934Z" stroke="white"/>
<path opacity="0.2" d="M191.752 179.183L271.003 132.58L350.248 179.183L429.5 225.791V412.215L350.248 458.816L271.003 505.42L191.752 458.816L112.5 412.215V225.784L191.752 179.183Z" stroke="white"/>
<path opacity="0.1" d="M157.751 119.184L271.005 52.5801L384.249 119.184L497.5 185.793V452.215L384.249 518.815L271.005 585.42L157.751 518.815L44.5 452.215V185.784L157.751 119.184Z" stroke="white"/>
<path opacity="0.1" d="M169.251 139.434L271.004 79.5801L372.749 139.434L474.5 199.292V438.715L372.749 498.565L271.004 558.42L169.251 498.565L67.5 438.715V199.284L169.251 139.434Z" stroke="white"/>
<path opacity="0.06" d="M135.751 80.1849L271.006 0.580176L406.249 80.1849L541.5 159.794V478.216L406.249 557.814L271.006 637.42L135.751 557.814L0.5 478.216V159.783L135.751 80.1849Z" stroke="white"/>
<path opacity="0.06" d="M146.251 98.9347L271.005 25.58L395.749 98.9347L520.5 172.294V465.715L395.749 539.064L271.005 612.42L146.251 539.064L21.5 465.715V172.284L146.251 98.9347Z" stroke="white"/>
<g clip-path="url(#clip0_333_2)">
<g filter="url(#filter0_d_333_2)">
<mask id="mask0_333_2" style="mask-type:alpha" maskUnits="userSpaceOnUse" x="180" y="212" width="182" height="214">
<path fill-rule="evenodd" clip-rule="evenodd" d="M316.501 238.745L271.002 212L225.499 238.745L180 265.486V372.46L225.499 399.201L271.002 425.946L316.501 399.201L362 372.46V265.489L316.501 238.745Z" fill="white"/>
</mask>
<g mask="url(#mask0_333_2)">
<path fill-rule="evenodd" clip-rule="evenodd" d="M316.501 238.745L271.002 212L225.499 238.745L180 265.486V372.46L225.499 399.201L271.002 425.946L316.501 399.201L362 372.46V265.489L316.501 238.745Z" fill="#F85E11"/>
<path fill-rule="evenodd" clip-rule="evenodd" d="M251.728 319.42V297.095L237.945 283.312V319.42C237.945 328.758 241.655 337.713 248.257 344.316C254.86 350.918 263.815 354.628 273.153 354.628C282.491 354.628 291.446 350.918 298.049 344.316C304.652 337.713 308.361 328.758 308.361 319.42V290.192C308.321 288.391 307.577 286.677 306.289 285.418C305.001 284.159 303.271 283.453 301.47 283.453C299.669 283.453 297.939 284.159 296.651 285.418C295.363 286.677 294.619 288.391 294.579 290.192V319.42C294.579 325.103 292.321 330.552 288.303 334.57C284.285 338.588 278.835 340.845 273.153 340.845C267.471 340.845 262.021 338.588 258.003 334.57C253.985 330.552 251.728 325.103 251.728 319.42Z" fill="white"/>
</g>
</g>
</g>
<defs>
<filter id="filter0_d_333_2" x="174" y="211" width="206" height="237.945" filterUnits="userSpaceOnUse" color-interpolation-filters="sRGB">
<feFlood flood-opacity="0" result="BackgroundImageFix"/>
<feColorMatrix in="SourceAlpha" type="matrix" values="0 0 0 0 0 0 0 0 0 0 0 0 0 0 0 0 0 0 127 0" result="hardAlpha"/>
<feOffset dx="6" dy="11"/>
<feGaussianBlur stdDeviation="6"/>
<feComposite in2="hardAlpha" operator="out"/>
<feColorMatrix type="matrix" values="0 0 0 0 0 0 0 0 0 0 0 0 0 0 0 0 0 0 0.45 0"/>
<feBlend mode="normal" in2="BackgroundImageFix" result="effect1_dropShadow_333_2"/>
<feBlend mode="normal" in="SourceGraphic" in2="effect1_dropShadow_333_2" result="shape"/>
</filter>
<clipPath id="clip0_333_2">
<rect width="347" height="260" fill="white" transform="translate(98 166)"/>
</clipPath>
</defs>
</svg>
