<svg width="52" height="52" viewBox="0 0 52 52" fill="none" xmlns="http://www.w3.org/2000/svg">
<rect width="52" height="52" rx="13" fill="url(#paint0_linear_110_3608)"/>
<rect width="52" height="52" rx="13" fill="url(#paint1_linear_110_3608)"/>
<path fill-rule="evenodd" clip-rule="evenodd" d="M24.5002 34.9997C24.5002 34.9997 23.0001 34.9997 23.0001 33.4996C23.0001 31.9996 24.5002 27.4996 30.5 27.4996C36.4999 27.4996 38 31.9996 38 33.4996C38 34.9997 36.4999 34.9997 36.4999 34.9997H24.5002ZM30.5003 25.9999C31.3903 25.9999 32.2604 25.7359 33.0004 25.2415C33.7404 24.747 34.3172 24.0442 34.6578 23.222C34.9984 22.3997 35.0875 21.4949 34.9139 20.622C34.7402 19.7491 34.3116 18.9473 33.6823 18.318C33.053 17.6887 32.2511 17.2601 31.3782 17.0865C30.5053 16.9128 29.6005 17.002 28.7782 17.3425C27.9559 17.6831 27.2531 18.2599 26.7587 18.9999C26.2642 19.7399 26.0003 20.6099 26.0003 21.4999C26.0006 22.6933 26.4748 23.8377 27.3186 24.6815C28.1625 25.5254 29.3069 25.9996 30.5003 25.9999ZM21.8235 34.9997C21.5998 34.5319 21.489 34.0181 21.5 33.4996C21.5 31.4652 22.5217 29.3747 24.4064 27.9206C23.4651 27.6308 22.4847 27.4884 21.5 27.4986C15.5001 27.4999 14 31.9998 14 33.4999C14 35 15.5001 35 15.5001 35L21.8235 34.9997ZM20.7501 25.9999C21.4918 25.9999 22.2169 25.7799 22.8336 25.3678C23.4504 24.9557 23.931 24.3699 24.2148 23.6847C24.4986 22.9994 24.5728 22.2453 24.428 21.5178C24.2832 20.7904 23.926 20.1222 23.4014 19.5978C22.8768 19.0734 22.2085 18.7163 21.481 18.5717C20.7535 18.4271 19.9994 18.5016 19.3142 18.7856C18.629 19.0696 18.0434 19.5504 17.6314 20.1672C17.2195 20.784 16.9997 21.5092 16.9999 22.2509C16.9999 22.7433 17.0969 23.2309 17.2854 23.6858C17.4739 24.1407 17.7501 24.5541 18.0984 24.9022C18.4466 25.2503 18.86 25.5265 19.315 25.7148C19.77 25.9031 20.2576 26 20.7501 25.9999Z" fill="white"/>
<defs>
<linearGradient id="paint0_linear_110_3608" x1="-4.875" y1="-12.4583" x2="52" y2="62.8333" gradientUnits="userSpaceOnUse">
<stop offset="0.0550171" stop-color="#0A0FDB"/>
<stop offset="1" stop-color="#8D00A6"/>
</linearGradient>
<linearGradient id="paint1_linear_110_3608" x1="25.9144" y1="-18.8627" x2="25.9144" y2="70.353" gradientUnits="userSpaceOnUse">
<stop stop-color="#F88311"/>
<stop offset="1" stop-color="#F83811"/>
</linearGradient>
</defs>
</svg>
