<svg width="52" height="52" viewBox="0 0 52 52" fill="none" xmlns="http://www.w3.org/2000/svg">
<rect width="52" height="52" rx="13" fill="url(#paint0_linear_110_3620)"/>
<rect width="52" height="52" rx="13" fill="url(#paint1_linear_110_3620)"/>
<path fill-rule="evenodd" clip-rule="evenodd" d="M14 33.7375C14 34.2279 14.3351 34.4443 14.8419 34.4413L19.531 34.4397C19.4815 34.2265 19.3022 33.821 19.2154 33.3491C19.1241 32.9214 19.0728 32.4861 19.0622 32.0489V27.0329C19.0817 26.7 19.1802 26.3766 19.3496 26.0894C19.5189 25.8023 19.7543 25.5596 20.0361 25.3815C20.4108 25.1469 22.3398 24.5372 22.939 24.2999C23.1066 24.2329 23.2742 24.1836 23.4277 24.1324C23.6204 24.0687 23.7662 24.0026 23.9424 23.944C26.6993 23.0259 25.6322 23.1527 28.9939 24.2721L31.4428 25.1516C31.615 25.2005 31.7802 25.2717 31.9341 25.3634C32.2229 25.5407 32.4649 25.7849 32.6395 26.0754C32.8141 26.3659 32.9162 26.6942 32.9371 27.0325V32.0486C32.9098 32.767 32.7858 33.4785 32.5685 34.1638C32.5288 34.2533 32.4952 34.3453 32.4679 34.4393H37.1095C37.6501 34.443 37.999 34.2573 37.999 33.7355V19.5781H14V33.7355V33.7375Z" fill="white"/>
<path fill-rule="evenodd" clip-rule="evenodd" d="M25.9048 33.1768C25.4597 33.1768 25.134 32.7095 24.8853 32.4618C24.6477 32.2242 23.786 31.5824 24.3491 30.964C24.4848 30.8465 24.6503 30.7688 24.8273 30.7392C25.3149 30.7392 25.5918 31.2791 25.9054 31.4893L27.253 30.1646C27.9719 29.4336 28.5775 30.105 28.5775 30.5049C28.5775 30.8709 28.2702 31.1168 28.0748 31.3136L26.7389 32.6499C26.513 32.8758 26.3348 33.1771 25.9068 33.1771L25.9048 33.1768ZM20.4203 27.2233V31.6766C20.4094 33.0861 20.8661 34.4594 21.719 35.5816C22.0323 35.9985 22.3993 36.3722 22.8105 36.693C23.6302 37.3328 24.9533 38.0052 25.9983 38.0052C26.8696 38.0052 28.0862 37.4599 28.7266 37.0305C29.6085 36.4447 30.3307 35.6485 30.828 34.7138C31.3253 33.7791 31.5821 32.7353 31.5753 31.6766V27.2233C31.5753 26.5606 31.033 26.455 30.5363 26.2918C30.0336 26.1262 29.5547 25.9332 29.048 25.7646C28.5607 25.6024 28.0761 25.4123 27.5597 25.2374C25.5435 24.5523 26.4202 24.5852 24.4667 25.2254L21.4904 26.2801C20.983 26.4477 20.418 26.5556 20.418 27.2233H20.4203Z" fill="white"/>
<path fill-rule="evenodd" clip-rule="evenodd" d="M35.1406 16.1564C35.1392 15.9726 35.2068 15.7949 35.3299 15.6584C35.453 15.5219 35.6229 15.4365 35.8059 15.4191C35.9861 15.4146 36.161 15.4804 36.2934 15.6027C36.4258 15.725 36.5054 15.8941 36.5152 16.0741C36.5251 16.2541 36.4644 16.4309 36.3461 16.5668C36.2279 16.7029 36.0612 16.7875 35.8816 16.8026C35.7904 16.8074 35.6992 16.7935 35.6135 16.7617C35.5279 16.73 35.4496 16.681 35.3836 16.618C35.2561 16.494 35.171 16.333 35.1406 16.1578V16.1564ZM32.3282 16.1564C32.3267 15.9726 32.3942 15.7948 32.5173 15.6583C32.6405 15.5218 32.8104 15.4364 32.9934 15.4191C33.176 15.4124 33.3541 15.4769 33.4902 15.5988C33.6262 15.7208 33.7097 15.8908 33.723 16.073C33.7293 16.2554 33.6647 16.4331 33.5428 16.5689C33.4209 16.7047 33.2512 16.788 33.0692 16.8013C32.8876 16.805 32.7112 16.7411 32.5742 16.6219C32.4373 16.5027 32.3495 16.3368 32.3282 16.1564ZM29.5157 16.1564C29.5143 15.9726 29.5819 15.7949 29.705 15.6584C29.8281 15.5219 29.998 15.4365 30.181 15.4191C30.3635 15.4124 30.5416 15.4769 30.6777 15.5988C30.8138 15.7208 30.8972 15.8908 30.9106 16.073C30.9155 16.2543 30.8498 16.4305 30.7273 16.5643C30.6049 16.6981 30.4352 16.779 30.2542 16.79C30.0731 16.801 29.8949 16.7412 29.7571 16.6232C29.6193 16.5053 29.5328 16.3384 29.5157 16.1578V16.1564ZM14 14.6093V18.2197H38V14.6093C37.9834 14.4533 37.9139 14.3077 37.8029 14.1968C37.692 14.0859 37.5464 14.0164 37.3904 14H14.6096C14.4536 14.0164 14.308 14.0859 14.197 14.1968C14.0861 14.3077 14.0165 14.4533 14 14.6093Z" fill="white"/>
<defs>
<linearGradient id="paint0_linear_110_3620" x1="-4.875" y1="-12.4583" x2="52" y2="62.8333" gradientUnits="userSpaceOnUse">
<stop offset="0.0550171" stop-color="#0A0FDB"/>
<stop offset="1" stop-color="#8D00A6"/>
</linearGradient>
<linearGradient id="paint1_linear_110_3620" x1="25.9144" y1="-18.8627" x2="25.9144" y2="70.353" gradientUnits="userSpaceOnUse">
<stop stop-color="#F88311"/>
<stop offset="1" stop-color="#F83811"/>
</linearGradient>
</defs>
</svg>
